<svg width="200" height="200" fill="none" xmlns="http://www.w3.org/2000/svg"><mask id="a" style="mask-type:alpha" maskUnits="userSpaceOnUse" x="0" y="0" width="200" height="200"><path d="M100 200c55.228 0 100-44.772 100-100S155.228 0 100 0 0 44.772 0 100s44.772 100 100 100Z" fill="#A86252"/></mask><g mask="url(#a)"><path d="M387.119-37.01h-574.184v357.918h574.184V-37.011Z" fill="#fff"/><path d="M387.119-119.783h-574.184v337.718h574.184v-337.718Z" fill="#E3E2F7"/><path d="M252.065-13.859h-78.641V93.027h78.641V-13.859Z" fill="#D0D0F7"/><path d="M248.098-9.51h-70.707v98.195h70.707V-9.511Z" fill="#F3F3FF"/><path d="M177.391 49.185v39.51L205 67.175l-27.609-17.99ZM177.391-9.51l22.174 22.988L215.108-9.51h-37.717Z" fill="#E6E6FF"/><path d="m217.989 30.543 11.522-6.25-5.761-13.587-14.891 12.337-9.293-9.565-8.261 12.228 26.847 31.196L205 67.173l33.044 21.522h10.054v-67.88l-10.054 30-20.055-20.272Z" fill="#FAFAFF"/><path d="M177.391 88.695h60.652L205 67.174l-27.609 21.521ZM223.75 10.707l-8.641-20.218-15.544 22.99 9.294 9.565 14.891-12.338Z" fill="#F3F3FF"/><path d="M-77.989 106.576h185.652V-71.679H-77.989v178.255Z" fill="#D0D0F7"/><path d="M-77.989 100.869h185.652v-161.82H-77.989v161.82Z" fill="#fff"/><path d="M52.609 85.923s-.38-7.608-3.859-8.858c-2.228-3.696-6.359-5.49-8.206-4.511-1.522-3.098-6.033-6.468-8.805-5.652-2.609-2.12-8.37-1.305-8.695.652-1.577-5.163-9.022-9.402-14.24-8.098C4.402 57.554 2.5 59.24 2.5 59.24s-9.891-1.25-10.978 4.837c-3.642 5.543-10.272 36.793-10.272 36.793h69.076l2.283-14.946ZM87.989 53.152s-11.359 0-14.566 7.446c-2.554.217-2.445 3.478-2.445 3.478s-2.554-.054-2.935 1.413c-2.609.218-4.783 6.142-3.804 8.533-2.99 1.032-4.837 3.098-4.674 4.456-2.228.49-4.348 2.283-4.022 4.348.326 2.065 8.315 14.946 8.315 14.946l43.805-6.25V58.044s-3.805-6.685-4.837-6.848c-1.033-.163-14.837 1.956-14.837 1.956Z" fill="#FAFAFF"/><path d="M43.206 32.5H11.902s-.109-3.914 6.413-3.479c2.663-3.26 6.413-1.576 6.413-1.576s3.315-4.402 8.696-2.446c4.402-.271 5.652 3.098 5.652 3.098s4.402-.272 5.272 2.283c2.39.054 4.456.815 4.239 2.12h-5.38ZM-77.99 31.195s7.718-8.858 25.762-2.663c13.967-.217 13.532 9.783 13.532 9.783s13.315-.761 17.174 9.945c5.49 4.24 1.685 10.761 1.685 10.761s10.489-3.858 17.228 7.283c2.609 0 6.902 2.663 6.685 6.195 7.174 2.664 5.272 16.794 0 19.077 2.88 3.37-1.196 9.293-1.196 9.293h-80.87V31.195ZM107.663-5.978S95.978-9.294 91.902.054C84.022 2.228 86.63 10.49 86.63 10.49c-8.37 0-10.978 14.402-7.391 17.717-5.978 2.935-8.424 8.696-7.446 11.794-2.88 1.304-1.576 5.924-.217 7.391-.272 4.13 7.88 13.913 16.25 10.815 7.663 2.229 11.467-2.01 11.467-2.01s.924 5.923 8.37 7.88V-5.978ZM107.662 83.587s-3.097-7.391-12.39-5.49c-7.23-3.151-20.381 1.25-20.11 6.523-9.13-1.468-10.76 4.782-10.76 4.782S62.01 77.99 46.684 82.554c-7.174-2.717-11.25 5.924-11.25 5.924s-8.152 1.305-5.978 7.663a5.598 5.598 0 0 0-4.076 4.729h82.282V83.587Z" fill="#F3F3FF"/><path opacity=".3" d="M23.37 100.869H-7.337L64.185-60.979h30.652L23.37 100.87ZM36.196 100.869h-7.61l71.468-161.848h7.609L36.196 100.87Z" fill="#E4E4F9"/><path d="M45.706 165.435a1.907 1.907 0 0 0-.272-.434 45.03 45.03 0 0 0-6.304-6.903c0-1.576-10.76-2.826-24.076-2.826-13.315 0-24.076 1.25-24.076 2.826a45.575 45.575 0 0 0-7.12 8.098l-.271.435c-1.577 2.5-2.772 5.272-2.61 7.826.075 1.12.256 2.23.544 3.315.01.168.047.333.109.489a86.51 86.51 0 0 0 3.967 11.848c.05.173.123.337.218.489 1.684 4.185 3.532 8.261 5 11.087l.217.49c.507.942.942 1.702 1.304 2.282 3.044 4.837 7.283 6.957 9.837 8.152.433.201.89.348 1.36.435a.709.709 0 0 0-.164.435c0 1.359 5.217 2.446 11.685 2.446 6.467 0 11.739-1.087 11.739-2.446a.71.71 0 0 0-.163-.435c.452-.087.89-.233 1.304-.435 2.609-1.195 6.848-3.315 9.837-8.152.435-.652.924-1.576 1.522-2.717.07-.174.161-.338.272-.489 1.522-2.99 3.424-7.229 5.108-11.468.063-.185.136-.366.218-.543a82.834 82.834 0 0 0 3.804-11.739c.01-.168.047-.333.109-.49.178-.841.288-1.695.326-2.554.217-2.989-1.413-6.196-3.424-9.022Z" fill="#003668"/><path d="M15.054 161.142c19.728 0 23.859-2.391 24.022-2.5.163-.109.109-.163.054-.272a.272.272 0 0 0-.326-.108c-.054.054-4.239 2.445-23.75 2.445-19.51 0-23.695-2.391-23.75-2.445-.054-.055-.217 0-.326.108a.218.218 0 0 0 .109.272c.163.109 4.239 2.5 23.967 2.5ZM-16.413 166.63c8.043 2.011 19.456 4.185 31.467 4.185 14.511 0 25.055-3.207 30.652-5.38a1.895 1.895 0 0 0-.271-.435c-5.544 2.228-16.033 5.38-30.38 5.38-11.849 0-23.207-2.174-31.196-4.185l-.272.435ZM-14.402 190.109c.05.173.122.337.217.489a150.493 150.493 0 0 0 29.62 3.153 103.9 103.9 0 0 0 29.239-3.968c.063-.185.135-.366.217-.543a103.385 103.385 0 0 1-29.456 4.076 152.565 152.565 0 0 1-29.837-3.207ZM-18.479 177.772c.01.168.047.333.11.49a184.224 184.224 0 0 0 34.184 3.478c14.457 0 25.652-2.174 32.88-4.239.01-.168.047-.333.11-.49-7.175 2.066-18.425 4.294-32.99 4.294-12.772 0-25-1.739-34.294-3.533Z" fill="#13458C"/><path d="M66.467-3.64c0-.11-.054-.11-.109-.164a2.12 2.12 0 0 0-1.576-1.25h-.652c-1.63.163-3.587 1.522-4.674 2.174a40.323 40.323 0 0 0-7.826 5.978c-2.5 2.446-4.51 5.272-6.685 7.935a61.679 61.679 0 0 0 1.142 7.066c.054.217-2.011-3.479-2.446-5.49a33.958 33.958 0 0 1-2.446 2.392 39.732 39.732 0 0 0 1.74 10.706c-.11-.163-2.827-6.141-3.425-9.293a12.495 12.495 0 0 0-1.739 2.065 53.975 53.975 0 0 0-2.663 4.945c-.924 1.74-1.793 3.533-2.717 5.327-1.794 3.478-3.641 6.902-5.326 10.38a61.033 61.033 0 0 0-3.261 7.826c-.272.815-.49 1.63-.707 2.392-.217.76-.054.163-.108.217v.108a.163.163 0 0 1-.055.11 1.033 1.033 0 0 1-.108.38.217.217 0 0 0-.055.163c0 .054-.054.054-.054.108l-.163.326c-.054.218-.163.435-.217.653l-.327.652c-.075.24-.166.477-.271.706l-.544 1.196a.434.434 0 0 1-.108.217c-.177.463-.376.916-.598 1.36v.108l-.272.652v.109l-.326.76-.272.761-.326 1.196v.163c-.054.163-.054.326-.109.49a.707.707 0 0 1-.054.325v.109a2.35 2.35 0 0 1-.054.272v.108c-.055.11-.055.272-.11.38v.11c0 .108-.053.217-.053.326v.108a43.465 43.465 0 0 0-.924 4.294c0 .054-.055.108-.055.217a.923.923 0 0 1-.054.38v.49c-.054 4.674 3.75 7.771 5.978 7.391h.326l.761-.272h1.685l.217.11h.109c.443.245.846.556 1.196.923.815.815 1.521 1.793 2.554 2.391l.163.109h.218l.434.163h2.011l.163-.109h.054a6.522 6.522 0 0 0 1.142-.706c.26-.17.496-.37.706-.598h.055l1.141-1.141.217-.218c2.283-2.5 4.566-5.054 5.979-8.152.706-1.63 1.195-3.315 1.793-4.945a31.464 31.464 0 0 1 2.391-5c.202-.315.384-.641.544-.979l.163-.271c.078-.153.17-.298.272-.435.054-.109.054-.218.108-.272l.11-.163.162-.326.163-.38a.055.055 0 0 1 .034-.05.053.053 0 0 1 .02-.005.76.76 0 0 0 .11-.326c.092-.114.165-.243.217-.38v-.11c.104-.28.231-.553.38-.814a.218.218 0 0 1 .054-.163 1.63 1.63 0 0 1 .218-.544c.177-.386.323-.786.435-1.196l.163-.434a.761.761 0 0 0 .108-.326l.326-.979a.163.163 0 0 1 .055-.108l.163-.598.163-.652.326-1.087c.054-.163.054-.326.109-.544.067-.135.104-.284.108-.435.272-.923.49-1.847.761-2.826 0-.054.054-.108.054-.163l.164-.543c.047-.26.12-.515.217-.761.066-.297.156-.588.272-.87l.163-.489c0-.108.054-.163.054-.271h.054c.04-.21.113-.412.218-.598v-.11l.108-.162c.104-.335.23-.662.381-.978v-.163c.069-.192.16-.374.272-.544.271-.706.652-1.304.978-1.956 1.359-2.392 2.99-4.674 4.13-7.174 1.468-3.316 1.74-6.957 2.772-10.38 2.228-6.794 6.25-13.642 4.185-20.925Z" fill="#BEBAF7"/><path d="M10 57.664c.054-.055.108 0 .163 0h.108c0-.218-.054-.49-.054-.761 0-.272-.489-.272-.489 0s.054.489.109.706H10v.055Z" fill="#3A37AF"/><path d="M25.652 74.293a319.226 319.226 0 0 0-3.913 20.326c-2.826 18.044-5.707 42.174-6.794 60.924-.217-1.413-.38-2.88-.598-4.293l-.489-3.044c-.434-2.608-.87-5.271-1.359-7.934a445.977 445.977 0 0 0-7.173-33.261C2.608 96.359-.598 85.652-6.087 76.032l-2.5-4.021a.112.112 0 0 0 .03-.205.112.112 0 0 0-.085-.013l-1.63-1.467a319.896 319.896 0 0 0-7.99-10.652 42.555 42.555 0 0 0-6.032-6.468 44.41 44.41 0 0 0-7.12-4.62 75.546 75.546 0 0 0-15.87-6.684 56.14 56.14 0 0 0-23.64-1.794l-.652.218c-.69.178-1.362.415-2.011.706A53.257 53.257 0 0 1-62.23 40c11.522.272 22.718 4.293 32.555 10.054a36.364 36.364 0 0 1 6.956 5.218 52.989 52.989 0 0 1 5.544 6.576c3.098 4.021 6.087 8.097 9.021 12.174l1.25 2.337A92.553 92.553 0 0 1-.707 90.815c4.457 13.207 6.793 25.924 9.565 39.565 1.305 6.631 2.609 15.109 3.641 22.174l.327 2.337.163 1.304c.163 1.142.271 2.283.38 3.424h2.12a4.246 4.246 0 0 0-.109-.761.66.66 0 0 1 .587.491.65.65 0 0 1 .01.27h.436c0-.271.326-.815.271 0h.761l.163-3.424c.055-.978.109-1.902.109-2.88.048-.177.066-.361.054-.543.001-.291.02-.582.055-.87v-.163c.108-1.631.38-5.272.706-10.109.326-4.837.815-10.054 1.413-16.195.109-1.468.272-2.99.38-4.511a.216.216 0 0 0 .055-.163c1.522-15.761 3.641-34.022 6.304-46.305h.109c.49-1.739 1.141-3.424 1.685-5.108 1.304-3.805 2.663-7.5 4.076-11.25 2.337-6.087 4.891-12.12 8.26-17.772 1.631-2.772 3.642-5.326 5.435-8.044 1.794-2.717 2.066-5.652 2.827-8.75 1.358-5.87 5.326-10.597 7.934-15.924 1.413-2.826 2.174-6.032 4.077-8.586a52.837 52.837 0 0 1 3.695-4.13h-.652C62.608-3.479 61.032-1.903 59.89 0a35.223 35.223 0 0 0-2.064 4.62 39.84 39.84 0 0 1-2.446 5.108c-1.467 2.609-3.098 5.109-4.51 7.772a29.84 29.84 0 0 0-2.718 8.315 19.51 19.51 0 0 1-1.468 4.891 32.058 32.058 0 0 1-2.717 3.968 72.993 72.993 0 0 0-5.163 8.315c-3.098 5.706-5.49 11.793-7.772 17.88-1.25 3.316-4.239 10.055-5.38 13.424Z" fill="#A2A6E2"/><path d="M23.26 52.391c-.162-4.076-1.195-8.098-2.173-12.065-.978-3.968-2.011-7.88-3.152-11.74-1.142-3.858-2.446-7.662-3.805-11.412-1.358-3.75-2.826-7.5-4.348-11.142A81.468 81.468 0 0 0 4.402-4.89l-.49-.761A28.206 28.206 0 0 0-.053.163c0-.109 1.63-5.109 2.989-7.283a74.181 74.181 0 0 0-5.163-6.576c-2.5-2.88-5.11-5.598-7.827-8.315-2.717-2.718-4.347-4.891-7.445-5.109h-.598c-1.087.109-1.522.924-1.685 2.011-.162.77-.27 1.552-.326 2.337 1.848.38 5.326 2.717 5.055 2.717a28.21 28.21 0 0 1-5.218-1.304l-.163 1.794c3.315 1.25 9.511 5.38 9.24 5.271-2.229-.978-4.403-2.228-6.794-2.88l-2.5-.598c.054 3.424.924 6.522 2.174 9.783a85.876 85.876 0 0 1 4.348 15.87c2.01 10.651 2.608 21.521 4.184 32.173A156.87 156.87 0 0 0-7.5 52.5c.924 4.076 1.467 7.282 3.315 10.38a11.522 11.522 0 0 0 6.74 5.218c1.395.388 2.847.535 4.293.434a11.515 11.515 0 0 0 2.228-.434l1.141-.598.435-.163c1.121.118 2.253.1 3.37-.055 6.739-1.413 9.402-8.695 9.239-14.89Z" fill="#A2A6E2"/><path d="M10.652 65.598v.109l.109 1.522c.87 9.021 1.63 18.043 2.174 27.119l.489 9.022c.434 9.402.924 18.75 1.141 28.152.217 9.402.652 18.587.435 27.88v.109h-3.587c0-1.141 0-2.283.054-3.424v-1.413c.163-9.293.978-18.641.87-27.935-.109-9.293-.109-18.913-.38-28.315l-.164-4.13c-.108-3.696-.326-7.392-.598-11.087-.434-5.218-.87-10.435-1.358-15.598 0 0-.218-3.641-.815-9.565-.327-3.642-3.153-11.359-4.185-14.837-1.033-3.479-1.63-7.337-2.391-10.979-1.468-6.793-4.022-13.315-6.414-19.837-1.195-3.26-2.337-6.576-3.315-9.945A82.99 82.99 0 0 1-9.348-7.772c-.652-3.912-1.413-7.771-3.098-11.412a30.054 30.054 0 0 0-5.706-8.044h.652a31.195 31.195 0 0 1 7.989 15.543c.706 3.587 1.087 7.229 1.902 10.816A96.142 96.142 0 0 0-4.51 9.348c2.391 6.793 5.163 13.478 6.902 20.49.924 3.695 1.468 7.445 2.391 11.14.924 3.696 2.229 7.12 3.424 10.653a56.895 56.895 0 0 1 1.359 5c.326 2.01.924 7.445 1.087 8.967ZM80.435 56.088c0-.544-.49-.87-.979-1.087l-.924-.435h-.054a12.227 12.227 0 0 0-3.37-.815 28.695 28.695 0 0 0-7.771.326c-2.663.38-5.163.978-7.446 2.391-4.185 2.554-7.228 6.576-11.087 9.565-2.282 1.74-4.62 3.316-6.684 5.272a48.964 48.964 0 0 0-5.272 5.924c-1.359 1.74-2.609 3.587-3.805 5.435l-.87 1.413c-1.467 2.337-2.88 4.782-3.477 7.5-.598 2.717-.435 4.782 1.086 6.413 1.522 1.63 2.664 1.196 3.588.109 0 .054 0 .054.054.108.07.174.16.338.272.49a7.067 7.067 0 0 0 9.674 2.01c2.282-1.521 4.076-3.913 5.543-6.195.87-1.36 1.522-2.826 2.337-4.185a29.071 29.071 0 0 1 3.152-4.076 57.718 57.718 0 0 0 9.294-13.642c.094-.152.167-.316.217-.489l.924-1.956c-2.5-.544-7.718-2.011-7.5-2.011a31.578 31.578 0 0 1 4.51-.163c1.305.109 2.555.38 3.86.543l.217-.326a16.467 16.467 0 0 1 2.989-3.152 51.52 51.52 0 0 1 7.01-5.435c1.033-.652 4.675-1.902 4.512-3.532Z" fill="#BEBAF7"/><path d="M35.435 94.403a17.284 17.284 0 0 1 1.685-2.881 21.412 21.412 0 0 1 2.717-2.717 20.543 20.543 0 0 0 4.13-5.055c1.196-2.01 1.903-4.184 2.935-6.25a24.078 24.078 0 0 1 4.185-5.489l5.272-5.489a49.462 49.462 0 0 1 5.163-4.946 32.656 32.656 0 0 1 6.032-3.695A33.26 33.26 0 0 1 79.457 55l-.924-.435a33.37 33.37 0 0 0-12.066 3.37c-4.456 2.227-7.771 5.542-11.195 9.075-3.424 3.533-7.12 6.74-9.185 11.142-1.033 2.228-1.848 4.51-3.26 6.521-1.414 2.011-3.262 3.641-5.055 5.38-1.794 1.74-2.5 3.588-3.37 5.653a27.008 27.008 0 0 0-1.467 2.772l-.109.271c-1.087 2.555-2.5 5.598-3.424 8.207-.924 2.609-2.12 6.685-3.152 10.108-.054.109-.054.218-.109.272-.012.092-.03.183-.054.272-.49 1.685-.978 3.37-1.413 5.054-.543 2.011-6.576 24.185-8.75 33.533-.326 1.25-.543 2.283-.652 2.989-.109.707-.055.326-.109.435h3.261c.163-1.141.326-2.283.543-3.37.055-.598.164-1.195.272-1.793 1.413-8.044 2.99-16.087 4.783-24.076.543-2.337 1.087-4.674 1.685-7.066.597-2.391.815-3.369 1.25-5l.108-.434c.011-.15.048-.297.109-.435.013-.092.03-.182.054-.272.102-.442.229-.877.38-1.304a89.956 89.956 0 0 1 6.088-17.174" fill="#A2A6E2"/><path d="M19.782 124.729c.003.244.059.485.163.706a6.135 6.135 0 0 0 1.25 2.337l.164.163.489.544.924.869h.108l1.142.924c1.902 1.468 4.021 2.718 5.978 3.968.815.489 1.63.978 2.391 1.521.761.544.761 1.25 1.468 1.522.706.272 5.434-2.228 5.434-2.228s-3.043 2.989-4.076 3.478c-.108.055 1.522 1.141 1.685 1.25 2.935 1.631 2.663 2.989 5.218 5.109a14.816 14.816 0 0 0 3.586 2.119c1.957.761 3.424 1.903 5.11 3.044a18.413 18.413 0 0 0 8.26 3.206c.814.217 1.66.291 2.5.218l.435-.109a.656.656 0 0 0 .434-.326c.598-.87-.108-2.228-.489-3.043a138.215 138.215 0 0 0-10.76-18.424c-2.066-2.881-3.587-5.979-5.49-8.913a17.065 17.065 0 0 0-6.25-5.87c-2.88-1.522-8.587-3.152-11.847-1.033-.502.276-.93.667-1.25 1.142l-.11.108-.108.109h-.271a7.228 7.228 0 0 0-3.425 1.196 6.458 6.458 0 0 0-2.01 2.174c0 .054-.055.054-.055.108a5.925 5.925 0 0 0-.598 4.131Z" fill="#A2A6E2"/><path d="M107.119 37.12c-4.185-4.51-10.109-6.902-16.195-7.337-3.028-.157-6.063.1-9.022.761-3.315.706-6.468 1.957-9.728 2.663l-5.707 1.033c-.978 3.37-2.663 6.467-2.99 10a38.864 38.864 0 0 1 .381-6.087c.218-1.196.544-2.337.87-3.478a9.29 9.29 0 0 0-1.63.489c-2.99.978-5.653 2.554-8.37 4.076l-8.424 4.728c-2.337 1.304-4.891 2.554-6.576 4.728-1.685 2.174-2.174 4.892-2.5 7.5a23.263 23.263 0 0 0 .706 9.076 112.82 112.82 0 0 0-5.652 11.848 9.773 9.773 0 0 0-.434 1.141 180.709 180.709 0 0 0-9.403 31.468 259.682 259.682 0 0 0-2.065 10.978c0 .109 0 .163-.054.217-.163 1.25-.38 2.5-.544 3.805-.163 1.304-.489 3.043-.652 4.565-.978 7.011-1.739 14.076-2.5 21.141-.109.816-.163 1.631-.272 2.446-.063.432-.1.868-.108 1.304a28.305 28.305 0 0 0-.218 2.011l-.163 1.522c-.054.652-.163 1.304-.217 1.902h.815c-.38-1.359.054-2.935.38-4.239.327-1.304.38-1.957.544-2.989a1.46 1.46 0 0 0 .38-.435c.055 0 .055 0 .055-.054a3.28 3.28 0 0 0 .217-.435c.271-.786.4-1.614.38-2.446 0-.054.055-.108.055-.163.054-.978.109-2.011.109-3.043 0-1.033.163-.979.271-1.468l.49-.108c-.01-.147.01-.295.054-.435l.163-1.631c.272-2.826.598-5.597.87-8.423.271-1.957.489-3.968.76-5.924.055-.816.163-1.576.272-2.337l.978-7.011c.272-1.522.49-3.044.761-4.565l.815-4.511a184.61 184.61 0 0 1 2.446-10.87 151.145 151.145 0 0 1 6.63-20.38 119.185 119.185 0 0 1 6.305-13.316l.435-.543c2.88-3.967 5.978-7.717 10-10.543a26.955 26.955 0 0 1 5.87-3.261c2.173-.87 4.401-1.359 6.52-2.283 2.12-.924 4.566-2.337 6.794-3.532 2.229-1.196 4.674-2.337 7.066-3.424 2.39-1.087 5-2.283 7.554-3.37 2.554-1.087 4.891-2.174 7.5-2.446 2.609-.271 5.49.272 8.152.707 2.663.435 5.109.87 7.609 1.413a.242.242 0 0 0 .326-.109.24.24 0 0 0 .013-.185.24.24 0 0 0-.122-.14Z" fill="#A2A6E2"/><path d="M26.413 116.848c5.543 3.369 10.543 10.054 15.326 14.402 2.717 2.446 5.76 4.674 8.152 7.5a37.988 37.988 0 0 1 3.098 4.62 24.218 24.218 0 0 0 3.804 4.673c1.794 1.74 3.696 3.424 5.218 5.381l-.435.109a54.693 54.693 0 0 0-4.674-4.729 25.577 25.577 0 0 1-3.424-3.858c-1.033-1.468-1.848-3.098-2.88-4.566-2.12-2.989-5.11-5.271-7.88-7.717-2.773-2.446-5.327-5.272-7.881-8.043a46.62 46.62 0 0 0-8.859-7.446s.435 0 .435-.326ZM20.49 133.315c-.653 2.772-1.36 5.544-1.957 8.316-1.142 4.837-2.12 9.674-3.044 14.565l-.652 3.424h4.456a37.146 37.146 0 0 1-.326-3.37A67.11 67.11 0 0 1 20 141.142l2.88-11.74-1.032-.923-1.359 4.836ZM-5.707 97.283l-4.13-4.293c-1.576-1.794-3.044-3.696-4.511-5.598-2.663-3.424-5.38-6.848-8.75-9.674a60.864 60.864 0 0 0-5.272-3.696 27.282 27.282 0 0 1-5.543-5.054c-2.935-3.533-5.653-7.065-9.62-9.565a46.316 46.316 0 0 0-4.565-2.5.707.707 0 0 0-.163.435 32.561 32.561 0 0 1 6.358 3.75c3.75 2.826 6.196 6.793 9.457 10.108 3.26 3.316 7.446 5.218 10.76 8.37 5.11 4.945 8.86 11.141 13.805 16.195l1.794 2.5a51.108 51.108 0 0 1 5.054 8.044c1.74 3.533 3.37 8.641 4.565 12.5 4.565 14.946 5.87 30.435 6.305 37.446.054 1.576.108 2.717.163 3.369h4.348c-.11-1.141-.272-2.282-.381-3.424l-.326-2.608c-1.522-12.337-4.783-25.109-8.967-36.957a74.784 74.784 0 0 0-10.38-19.348Z" fill="#BEBAF7"/><path d="M46.522 122.119H-54.131a4.022 4.022 0 0 0-4.021 4.022v63.782c0 2.221 1.8 4.022 4.021 4.022H46.522a4.022 4.022 0 0 0 4.021-4.022v-63.782c0-2.221-1.8-4.022-4.021-4.022Z" fill="#BEBAF7"/><path d="M155.869 122.119H54.239a4.022 4.022 0 0 0-4.022 4.022v63.782c0 2.221 1.8 4.022 4.022 4.022h101.63a4.022 4.022 0 0 0 4.022-4.022v-63.782c0-2.221-1.8-4.022-4.022-4.022Z" fill="#BEBAF7"/><path d="M264.185 122.119H163.532a4.022 4.022 0 0 0-4.021 4.022v63.782c0 2.221 1.8 4.022 4.021 4.022h100.653a4.022 4.022 0 0 0 4.021-4.022v-63.782c0-2.221-1.8-4.022-4.021-4.022ZM44.674 192.228h-109.24a2.88 2.88 0 0 0-2.88 2.88v31.446a2.88 2.88 0 0 0 2.88 2.88h109.24a2.88 2.88 0 0 0 2.88-2.88v-31.446a2.88 2.88 0 0 0-2.88-2.88Z" fill="#BEBAF7"/><path d="M160.163 192.228H50.217a2.88 2.88 0 0 0-2.88 2.88v31.446a2.88 2.88 0 0 0 2.88 2.88h109.946a2.88 2.88 0 0 0 2.88-2.88v-31.446a2.88 2.88 0 0 0-2.88-2.88Z" fill="#BEBAF7"/><path d="M275 192.228H165.761a2.88 2.88 0 0 0-2.881 2.88v31.446a2.88 2.88 0 0 0 2.881 2.88H275a2.88 2.88 0 0 0 2.88-2.88v-31.446a2.88 2.88 0 0 0-2.88-2.88Z" fill="#BEBAF7"/><path d="M45.108 192.228H-65a2.446 2.446 0 0 0-2.446 2.445v3.191A2.446 2.446 0 0 0-65 200.309H45.108a2.446 2.446 0 0 0 2.446-2.445v-3.191a2.446 2.446 0 0 0-2.446-2.445Z" fill="#A2A6E2"/><path d="M160.598 192.228H49.783a2.446 2.446 0 0 0-2.446 2.445v3.191a2.446 2.446 0 0 0 2.446 2.445h110.815a2.445 2.445 0 0 0 2.445-2.445v-3.191a2.445 2.445 0 0 0-2.445-2.445Z" fill="#A2A6E2"/><path d="M275.435 192.228H165.326a2.446 2.446 0 0 0-2.446 2.445v3.191a2.446 2.446 0 0 0 2.446 2.445h110.109a2.445 2.445 0 0 0 2.445-2.445v-3.191a2.445 2.445 0 0 0-2.445-2.445Z" fill="#A2A6E2"/><path d="M151.141 88.315s1.25 9.184 3.696 12.119c2.445 2.935 10.38 2.718 14.619 4.076 4.239 1.359.544 15.49-12.989 17.392-13.532 1.902-28.695-.055-30.815-5.707-2.12-5.652-2.12-8.532 1.087-9.674 3.206-1.141 5.489-1.413 7.228-2.717 1.739-1.304 8.913-13.805 10.272-17.011 1.359-3.207 5.163-2.772 6.902 1.522Z" fill="#A86C54"/><path d="M129.13 105.705a2.719 2.719 0 0 0-2.445 2.5c-.381 2.392 7.337 8.479 21.848 6.903 14.51-1.576 18.75-10.381 20.38-10.924 1.63-.544 7.228 5.706 10.272 9.565 3.043 3.859 2.826 12.663 3.75 23.967.924 11.305-6.522 17.174-6.305 20.815.218 3.642 3.913 10.435 4.783 12.446.87 2.011.109 3.261-2.663 3.696-2.772.435-46.304-1.902-50.87 3.804a95.025 95.025 0 0 1-8.152 9.076s-2.771-.761-3.424-4.511c-1.25-6.684.924-10.217 3.859-15.652 2.935-5.435 3.043-14.022 2.446-15.924-.598-1.902-4.076-8.315-4.511-19.402-.435-11.087 3.098-26.522 11.032-26.359Z" fill="#7451EB"/><path d="M117.119 185.651s-2.5-3.859-.978-10.489c1.522-6.63 4.891-6.522 5.924-14.13 1.033-7.609 3.315-23.642 3.315-23.642s-.761 8.642 9.891 10.163c10.653 1.522 30.598-2.445 30.598-2.445s5.489-.653 4.892-21.739c.869 1.195 6.576 28.315 6.576 28.315s-9.348 8.043-12.881 6.793c-3.532-1.25-15.543-12.228-15.543-12.228s6.195 9.783-1.685 7.337c.217 2.174-8.587 3.641-5.217 5.761 3.369 2.119-9.729 4.565-5.707 6.576 4.022 2.011-19.348 8.859-19.185 19.728Z" fill="#474BB4"/><path d="M170.163 107.608s.706 20.815 1.358 27.881c.653 7.065 4.022 14.619 3.424 19.184-.597 4.566 1.685 10.544 4.837 11.685 3.153 1.141 6.903-.109 9.185-5.326 2.283-5.217 1.902-17.391.652-23.641s-3.098-14.892-6.63-20.979c-3.533-6.087-7.5-10.271-12.391-11.63-.979.217-.435 2.826-.435 2.826Z" fill="#7451EB"/><path d="M182.881 146.738s5.326 3.044 3.695 8.914c-1.63 5.869-12.609 1.684-14.945.815-2.337-.87-5.001-.435-3.37 3.369 1.63 3.805 14.62 14.674 14.62 14.674l-3.479-8.098a6.245 6.245 0 0 0 6.25-.706c3.044-2.283 4.837-6.413 5.055-14.131a70.2 70.2 0 0 0-1.903-18.858c-1.25-5.326-2.445-9.783-5.163-15.435.598 2.12 3.75 19.565 3.098 27.826-.815-.761-4.837-2.391-8.532 0 2.608-.87 8.152-.652 9.619 3.859-.435-.924-3.315-2.5-4.945-2.229Z" fill="#474BB4"/><path d="M102.717 157.879c-.054-.163-1.25-3.097-.217-5.163 1.032-2.065 4.348-3.043 4.348-3.043 0-1.739-.163-2.772.815-2.989.815-4.131 2.337-10.381 2.772-14.076.434-3.696 2.608-11.522 6.195-17.174 3.587-5.652 7.12-7.663 8.37-7.826.869 2.554-.598 18.913-.815 23.641-.218 4.728.108 14.837.597 18.206.49 3.37.163 7.555-.597 9.892-.761 2.337-3.207 6.576-8.37 7.608-5.163 1.033-9.783-3.695-13.098-9.076Z" fill="#7451EB"/><path d="M97.228 155.434s2.554.272 3.152-.054l3.478-1.902c1.468-.87 3.533-2.663 7.446-.978 3.913 1.684 6.196 7.554 4.946 11.467-1.25 3.913-14.131-1.413-18.044-1.359-3.913.055-3.043-6.413-.978-7.174Z" fill="#A86C54"/><path d="M125.978 124.075s-2.5 8.044-2.5 13.805c0 5.761-.435 15.054-1.685 13.315-1.25-1.739-2.935-3.641-7.337-3.641 5.218 1.521 5.761 6.684 5.761 6.902-.978-2.772-3.696-3.207-6.522-4.022 3.37 1.196 3.805 5.218 2.772 9.728-1.033 4.511-8.641 4.131-8.641 4.131 2.826 3.098 7.608 4.511 13.315.326 5.706-4.185 4.402-13.044 4.13-20-.271-6.957.707-20.544.707-20.544Z" fill="#474BB4"/><path d="M88.532 159.293s3.968 1.739 4.62 1.793c.652.054 4.348.815 4.837.381.489-.435 1.467-2.935.38-3.914a25.324 25.324 0 0 0-2.282-1.63h-3.805l-3.75 3.37Z" fill="#885541"/><path d="M104.619 159.455a5.592 5.592 0 0 0-2.554-1.63c-1.413-.326-1.793-.326-2.337-.924-.543-.598-2.88-3.152-4.239-3.261-1.359-.109-2.663 0-3.26.489-.599.489-2.718.055-3.588.652-.87.598-2.446.055-3.152.544-.707.489-2.446 1.576-2.935 1.956-.489.381-2.445 1.848-2.174 2.337.272.49 1.794.272 1.794.272a5.093 5.093 0 0 0 2.174.054c.706-.271 1.902.164 2.717-.163.815-.326.652-.326.652-.326s0 .598 1.522.598 3.533-2.663 3.967-2.989c.435-.326 1.25.924 3.424 1.25 2.174.326 2.5.707 3.044.87.543.163 2.065 2.228 3.098 1.793a5.369 5.369 0 0 0 1.847-1.522ZM161.25 146.086s-1.087 3.261.761 5.544c1.847 2.282 8.913 6.195 8.913 6.195l3.478 3.152c.978.924 4.076 2.881 6.087 3.098 2.011.218 4.945-.652 5.978-4.891 1.033-4.239-.924-8.641-3.967-9.348-3.044-.706-6.033-.163-7.283-.163s-2.282.054-2.772-.489a7.942 7.942 0 0 1-1.195-2.337c0-.326-.055-2.989-1.794-3.37-1.739-.38-7.445 1.196-8.206 2.609Z" fill="#A86C54"/><path d="m169.13 144.619 5.489-2.229c.163 0 .49 0 .653.544.163.543.38 1.087-.381 1.304l-5.543 1.576a.754.754 0 0 1-.407-.543.763.763 0 0 1 .189-.652Z" fill="#003668"/><path d="M174.891 144.129c.42 0 .761-.389.761-.869s-.341-.87-.761-.87-.761.39-.761.87.341.869.761.869Z" fill="#BEBAF7"/><path d="M174.891 142.988a.378.378 0 0 0-.109.435.334.334 0 0 0 .169.206.324.324 0 0 0 .266.011l.543-.217a.324.324 0 0 0 0-.435c-.271-.217-.326-.272-.869 0Z" fill="#A2A6E2"/><path d="M175.217 144.076a1.57 1.57 0 0 1-.435.924c-.434.326-2.989.978-3.261 1.087-.271.108-.543-.163-.38-.272.163-.109 2.011-.598 2.12-.707.108-.108.163-.489.38-.652a8.047 8.047 0 0 1 1.576-.38Z" fill="#003668"/><path d="M165.054 152.228s3.859 1.141 5.707 3.043c3.098 3.316 6.304 4.076 10.326 4.076s5.543-4.184 5.543-4.184.924 5.163-2.174 7.934c-3.097 2.772-8.586 0-12.065-3.804-3.478-3.804-9.511-6.793-9.511-6.793s-.38-1.576 2.174-.272Z" fill="#885541"/><path d="M170.652 143.314s.761-.598.706-1.25c-.054-.652-.434-1.032-1.413-1.032l-27.119.978a2.392 2.392 0 0 0-1.739.706c-.707.761-17.935 26.794-17.935 26.794a1.945 1.945 0 0 0 .329 1.538 1.968 1.968 0 0 0 1.356.799c1.358-.272 36.739-25.87 37.119-26.033.381-.163 8.696-2.5 8.696-2.5Z" fill="#BEBAF7"/><path d="m152.065 169.945-27.228 1.903c-.326.054-.761-.326-.598-.653l18.424-27.282a.432.432 0 0 1 .38-.218l28.153-.978-18.805 27.011-.326.217Z" fill="#fff"/><path d="M142.011 144.836c-.055.815-.598 1.25-1.25 1.033a1.794 1.794 0 0 1-1.142-1.794.986.986 0 0 1 .351-.848.974.974 0 0 1 .899-.184" stroke="#5D4CD1" stroke-width=".34" stroke-miterlimit="10" stroke-linecap="round"/><path d="M140.924 146.466c-.054.816-.598 1.25-1.305 1.033a1.9 1.9 0 0 1-1.141-1.793 1.03 1.03 0 0 1 .391-.847 1.035 1.035 0 0 1 .914-.186" stroke="#5D4CD1" stroke-width=".34" stroke-miterlimit="10" stroke-linecap="round"/><path d="M139.837 148.152a.98.98 0 0 1-1.305.978 1.74 1.74 0 0 1-1.141-1.794c.054-.76.598-1.25 1.304-1.032" stroke="#5D4CD1" stroke-width=".34" stroke-miterlimit="10" stroke-linecap="round"/><path d="M138.696 149.782a.986.986 0 0 1-.351.848.974.974 0 0 1-.899.184 1.794 1.794 0 0 1-1.142-1.848.927.927 0 0 1 1.25-.978" stroke="#5D4CD1" stroke-width=".34" stroke-miterlimit="10" stroke-linecap="round"/><path d="M137.608 151.412c-.054.761-.598 1.25-1.304 1.032a1.96 1.96 0 0 1-1.141-1.793c.054-.815.652-1.25 1.304-1.033" stroke="#5D4CD1" stroke-width=".34" stroke-miterlimit="10" stroke-linecap="round"/><path d="M136.521 153.042a1.028 1.028 0 0 1-.825 1.049 1.034 1.034 0 0 1-.479-.016 1.843 1.843 0 0 1-1.141-1.794c.054-.815.598-1.25 1.304-1.032" stroke="#5D4CD1" stroke-width=".34" stroke-miterlimit="10" stroke-linecap="round"/><path d="M135.38 154.673a.974.974 0 0 1-.351.848.97.97 0 0 1-.899.184 1.843 1.843 0 0 1-1.141-1.793c.054-.815.598-1.25 1.25-1.033" stroke="#5D4CD1" stroke-width=".34" stroke-miterlimit="10" stroke-linecap="round"/><path d="M134.293 156.303c-.054.815-.598 1.25-1.25 1.033a1.797 1.797 0 0 1-1.141-1.794.974.974 0 0 1 .351-.848.975.975 0 0 1 .899-.184" stroke="#5D4CD1" stroke-width=".34" stroke-miterlimit="10" stroke-linecap="round"/><path d="M133.206 157.934c-.054.815-.598 1.25-1.304 1.032a1.96 1.96 0 0 1-1.142-1.793 1.042 1.042 0 0 1 .391-.846 1.036 1.036 0 0 1 .914-.187" stroke="#5D4CD1" stroke-width=".34" stroke-miterlimit="10" stroke-linecap="round"/><path d="M132.065 159.564c0 .816-.598 1.25-1.25 1.033a1.792 1.792 0 0 1-1.141-1.793c.054-.761.597-1.25 1.304-1.033" stroke="#5D4CD1" stroke-width=".34" stroke-miterlimit="10" stroke-linecap="round"/><path d="M130.978 161.249c-.055.761-.598 1.196-1.25.978a1.683 1.683 0 0 1-1.141-1.793.972.972 0 0 1 .35-.849.98.98 0 0 1 .899-.184" stroke="#5D4CD1" stroke-width=".34" stroke-miterlimit="10" stroke-linecap="round"/><path d="M129.891 162.88c-.054.761-.598 1.25-1.304 1.032a1.958 1.958 0 0 1-1.142-1.847.984.984 0 0 1 .39-.84.982.982 0 0 1 .915-.139" stroke="#5D4CD1" stroke-width=".34" stroke-miterlimit="10" stroke-linecap="round"/><path d="M128.804 164.51a1.03 1.03 0 0 1-.391.847 1.034 1.034 0 0 1-.913.186 1.85 1.85 0 0 1-1.142-1.793c.055-.816.598-1.25 1.305-1.033" stroke="#5D4CD1" stroke-width=".34" stroke-miterlimit="10" stroke-linecap="round"/><path d="M127.663 166.141a.986.986 0 0 1-.351.848.975.975 0 0 1-.899.185 1.794 1.794 0 0 1-1.141-1.794c0-.815.598-1.25 1.25-1.033" stroke="#5D4CD1" stroke-width=".34" stroke-miterlimit="10" stroke-linecap="round"/><path d="M126.576 167.771c-.054.761-.598 1.25-1.304 1.033a1.96 1.96 0 0 1-1.142-1.794c.055-.815.653-1.25 1.305-1.032" stroke="#5D4CD1" stroke-width=".34" stroke-miterlimit="10" stroke-linecap="round"/><path d="M125.489 169.401c-.054.815-.652 1.25-1.304 1.033a1.85 1.85 0 0 1-1.142-1.794c.055-.761.598-1.25 1.305-1.032" stroke="#5D4CD1" stroke-width=".34" stroke-miterlimit="10" stroke-linecap="round"/><path d="M154.728 99.51s2.446 2.663 1.902 7.554c-.652 6.522-4.782 18.207-8.641 22.772-3.859 4.565-8.261 3.152-10.87-1.902-2.608-5.055-4.619-20.979-.108-26.359.435-.652.652-.272.652-.272s-2.935 3.479-2.717 10.816c.217 7.337 4.021 17.717 7.826 17.391 5.326-.435 10.652-13.098 12.391-18.587 1.739-5.489 1.359-7.881-.707-11.033a2.418 2.418 0 0 0-.326-.489c.055-.272.326-.272.598.109Z" fill="#EE685F"/><path d="m155.271 152.282-6.793.217a.38.38 0 0 1-.326-.652l1.087-1.576a.323.323 0 0 1 .326-.163l6.793-.217c.327-.055.544.326.327.652l-1.087 1.522a.502.502 0 0 1-.327.217Z" fill="#BEBAF7"/><path d="M170.054 163.042a11.197 11.197 0 0 1 7.881 3.207c3.315 3.424 7.065 10.108 5.326 17.011-1.739 6.902-3.37 10.543-10.979 10.543-7.608 0-14.837-5.598-14.456-15.163.38-9.565 5.924-16.304 12.228-15.598Z" fill="#EE685F"/><path d="M169.402 154.782c-1.413-2.065-6.196-6.739-11.576-5.652-5.381 1.087-21.25 10.326-30.326 16.413-13.424 9.022-10.761 15.326-8.641 22.5 2.119 7.174 11.195 10.38 21.63 7.5 10.435-2.88 25.598-14.239 27.609-22.663 2.011-8.424 1.304-18.098 1.304-18.098Z" fill="#EE685F"/><path d="M147.337 102.173c-1.577 1.413-7.827 5.544-10.544 6.142-.163.054 1.25 6.63 6.902 4.673 5.652-1.956 5.381-9.347 5.924-16.086" fill="#885541"/><path d="M124.348 86.467s.869 4.184 1.25 5.271a26.747 26.747 0 0 0 1.521 3.207c.489.715.805 1.533.924 2.391 0 .816-.054 2.663 1.468 2.989 0 1.685.434 2.283 2.119 2.066.272 1.576.544.869 1.087 2.065a18.999 18.999 0 0 1 1.522 3.858c.272 1.196 1.576 2.229 3.859 1.794 2.282-.435 5.271-2.011 8.532-6.359s4.565-10.543 4.511-12.934c-.054-2.392-.109-15.055-6.739-14.783-6.631.272-21.196 5.435-20.054 10.435Z" fill="#A86C54"/><path d="M125.435 91.087c.11.545.42 1.03.869 1.358.979.435 1.033.272 1.522.924.489.653.218.598-.272.435l-1.793-.706c-.652-.326-1.304-1.359-.326-2.011ZM132.391 93.097a3.258 3.258 0 0 1 2.12-1.684c1.685-.544 3.206-.055 4.456-.109a4.84 4.84 0 0 0 2.229-.435c.108.163-.544.761-1.631 1.087-2.119.652-4.076-.326-5.489.544-1.413.87-1.848 1.195-1.685.597Z" fill="#003668"/><path d="M133.641 95.326a2.066 2.066 0 0 0 2.446.923 2.613 2.613 0 0 0 2.065-2.065s-4.022.109-4.511 1.142Z" fill="#fff"/><path d="M134.456 96.086a.708.708 0 0 1 .055-.87c.38-.434 1.847-.325 1.902.327.054.652-.272.706-.652.76a1.362 1.362 0 0 1-1.305-.217Z" fill="#003668"/><path d="M127.119 95.38s.435 1.358.978 1.25c.544-.109 1.196-.38.924-1.033-.271-.652-1.848-.49-1.902-.217Z" fill="#fff"/><path d="M131.739 102.989s.054.326.815.326c.761 0 1.576-.326 2.609-.272a4.236 4.236 0 0 0 2.989-1.087 9.228 9.228 0 0 1-.924 1.739c-.978 1.414-1.467 1.957-2.88 2.066-1.414.108-2.337-.109-1.848-1.413-.652.108-1.087-.761-.761-1.359Z" fill="#933"/><path d="M137.88 101.195s2.283-.761 1.087 1.576c-.054-.163.326-1.522-1.087-1.576ZM133.696 102.717c.815-.218 1.25-1.631.706-2.283-.109 1.576-1.25.924-1.685 1.468-.29.29-.677.464-1.087.489 0 0 .598.706 2.066.326Z" fill="#885541"/><path d="M133.641 95.325a.87.87 0 0 1 .435-1.304c.978-.38 4.619-.38 5.489-.816-.163.49-1.359 1.903-4.022 2.066l-1.902.054ZM126.304 94.564s.272.272 1.087.163c.815-.108 1.631.272 1.739.978a6.509 6.509 0 0 1-1.141 0c-.707 0-1.141.164-1.685-1.14ZM142.391 63.587s-2.717-.761-2.554-5.979c.163-5.217 7.5-9.837 12.88-6.63 2.935-.761 7.337 2.772 6.794 6.413 1.304 1.141 2.173 6.739.054 9.783-2.12 3.043-4.891 5.217-8.641 3.369-3.75-1.848-8.533-6.957-8.533-6.957Z" fill="#003668"/><path d="M143.261 62.88s-2.663-1.685-1.522-5.87c.815-2.989 4.076-4.782 8.859-3.804-.598-.38 1.196-2.391 4.837-1.902-.381-.435-1.468-.707-2.663-.544-.652-.924-6.141-2.391-9.837.87-3.696 3.26-5.163 9.62-.761 11.848l1.087-.598Z" fill="#13458C"/><path d="M139.782 65.543c.163-.326 1.794-2.717 3.152-2.99 1.359-.27 4.457.327 6.359 2.827 1.902 2.5 1.848 6.794 1.848 6.794s-11.794-5.761-11.359-6.631Z" fill="#EE685F"/><path d="M130.707 71.25a11.247 11.247 0 0 1 10.38-6.359c7.772-.054 12.935 7.228 13.37 11.957.761 7.5-1.631 7.934-1.739 11.956-.109 4.022.054 6.087.652 6.522-1.685.326-1.685-1.196-3.044-3.424a20.897 20.897 0 0 0-3.043-3.75 10.105 10.105 0 0 0-.272 2.826c-.435-.163-1.522-1.848-2.717-2.337-1.196-.489-2.337-2.12-2.337-2.12s-2.826 1.088-5.381-.326c-1.848 1.468-10.543 5.272-13.532 1.142-2.989-4.13-3.642-11.359 7.663-16.087Z" fill="#003668"/><path d="M147.174 89.51s-1.305-3.315.924-4.51c2.228-1.197 3.206 2.39 3.261 5.108.054 2.717-.707 4.239-2.12 3.913-1.413-.326-.761-2.663-.761-2.663s-.326-2.12-1.304-1.848Z" fill="#A86C54"/><path d="M125.272 88.967s-1.903-1.522-2.935-4.946c-1.033-3.424 1.956-9.185 7.88-10.272 5.924-1.087 12.228-.163 15.326 1.577-2.717-1.74-7.282-4.185-12.608-4.729.652-.598 3.695-5 8.152-5.706-1.087-.38-7.283-.109-10.979 5.489-5.597 2.554-11.195 6.63-9.673 13.26 1.141 4.946 4.837 5.327 4.837 5.327Z" fill="#13458C"/><path d="M148.913 94.51a.761.761 0 1 0 0-1.522.761.761 0 0 0 0 1.523Z" fill="#EE685F"/><path d="M148.152 88.043s-.055-1.304.761-1.522c.815-.217 1.141.924 1.087 2.446-.055 1.522-.87.924-.489 1.685.38.76-.109.706-.435.924a2.278 2.278 0 0 0-.87 1.032c-.109.435-.38-1.032.163-1.413.544-.38 1.305-1.521.87-2.01-.435-.49-1.142-.653-1.087-1.142Z" fill="#885541"/><path d="M127.554 96.25a.432.432 0 0 1 .109-.598c.38-.38 1.141.217 1.032.815l-.435.163c-.163.054-.434.054-.706-.38Z" fill="#003668"/><path d="M95.652 161.032s.108 1.196 2.065 1.631c1.957.434 5.381.76 7.989 1.413 2.609.652 6.576 1.956 9.076 1.304 2.5-.652 1.957-4.022 1.685-5.217-.435.434-9.728.978-14.185.489-4.456-.489-6.63-.326-6.63.38Z" fill="#885541"/><path d="M101.358 158.587a5.916 5.916 0 0 0-3.315.326c-1.413.652-1.63 1.739-1.196 2.337.435.597 2.935.434 3.696.543.761.109 1.359 1.087 2.989 1.141 1.631.055 2.174-2.282 1.087-3.478-1.087-1.196-1.902-.489-3.261-.869Z" fill="#A86C54"/><path d="M182.608 173.75s2.12 5.489.979 9.402c-1.142 3.913-2.446 9.185-6.576 10-4.131.815-19.62-2.5-30.435.108-10.815 2.609-10.163 3.75-14.674 3.642-4.511-.109-11.902-1.576-14.13-8.75-2.881-9.131 1.032-14.294 1.032-14.294s-3.478 14.457 7.772 13.696c7.989-.544 12.663-11.304 17.717-15.652 5.055-4.348 8.75-7.935 8.75-7.935s-1.032 18.261 10.761 19.728c11.794 1.468 18.696.435 18.804-9.945Z" fill="#CD5B51"/><path d="M160.978 151.086c-3.206.598-10.543 11.576-8.532 23.533 2.01 11.956 7.01 20.869 11.032 30.435a328.994 328.994 0 0 1 7.011 18.261s12.174-1.033 12.391-4.185c-.108-1.142-5-30.272-5.815-37.283-.815-7.011-3.043-17.391-5.598-23.478-2.554-6.087-6.902-7.881-10.489-7.283Z" fill="#EE685F"/><path d="M153.424 236.956s4.674-42.011 4.239-50.707c-.435-8.695-3.642-16.793-11.25-16.087-3.479.326-11.25 2.609-12.337 13.696-1.087 11.087 5.435 54.076 5.435 54.076s9.402.87 13.913-.978Z" fill="#EE685F"/><path d="M164.021 206.304c1.142 2.934 6.033 17.228 6.033 17.228s3.098-.435 4.891-.815c0 0-7.282-21.25-11.576-27.229-9.945-13.75-9.456-22.228-10.326-32.5 0 0-4.076 10.761 2.5 25.218 6.576 14.456 8.478 18.098 8.478 18.098ZM134.783 180s1.956 26.195 4.456 38.369c1.313 6.684 3 13.288 5.055 19.783 0 0-4.131.054-4.946-.163-.815-.218-8.37-50-4.565-57.989Z" fill="#CD5B51"/><path d="M133.152 162.662H7.609a1.36 1.36 0 0 0-1.359 1.359v3.424c0 .75.608 1.359 1.359 1.359h125.543a1.36 1.36 0 0 0 1.359-1.359v-3.424a1.36 1.36 0 0 0-1.359-1.359Z" fill="#003668"/><path d="M91.305 168.804H49.348c4.076 0 9.294 5.761 12.826 14.185a30.808 30.808 0 0 0 14.348 5.706c3.26-11.358 9.891-19.891 14.783-19.891Z" fill="#002A49"/><path d="M101.576 253.587c-2.5 0-18.533-.761-21.794-3.968 0-.272-5.271-11.576-5.271-47.065a49.946 49.946 0 0 1 2.01-13.859 30.808 30.808 0 0 1-14.347-5.706 51.031 51.031 0 0 1 3.967 19.565c0 35.489-5.217 46.793-5.217 47.065-3.261 3.207-19.348 3.968-21.848 3.968s-4.511 2.228-4.511 2.228l15.76.869c13.343.707 26.713.707 40.055 0l15.707-.869s-2.011-2.228-4.511-2.228Z" fill="#003668"/><path d="M21.739 153.858h-8.533c0 6.631 4.076 8.152 4.076 8.152h8.913s4.076-1.521 4.076-8.152H21.74Z" fill="#fff"/><path d="M30.108 156.086a1.089 1.089 0 0 1 .924-.489c.652 0 1.902.163 1.902 1.902 0 1.739-2.445 3.533-4.782 2.989-.055-.38.054-1.032.489-.869a4.077 4.077 0 0 0 2.228-.163 2.066 2.066 0 0 0 1.087-2.228c-.218-.924-1.25-.761-2.065-.163-.815.597-.163-.87.217-.979ZM31.739 161.358c-1.087.381-3.642.544-4.729.544H16.468c-1.087 0-3.641-.163-4.728-.544-1.087-.38.326 1.305 3.26 1.305h13.425c2.989 0 4.184-1.576 3.315-1.305Z" fill="#fff"/><path opacity=".1" d="M20.108 154.619s-4.51-1.793-.924-6.902c3.587-5.109-2.228-6.522.598-10.218 2.826-3.695 1.685-5.054 1.685-5.054s2.826 3.804 1.74 6.196c-1.088 2.391 3.912 5.108 2.553 9.021-1.358 3.914 1.74 5.49-1.413 8.044-3.152 2.554-2.39-.544-1.521-2.663.87-2.12-1.848-3.967.326-7.5s-2.229-3.533-1.25-8.044c-2.99 2.99 1.032 4.946-.544 8.207-1.576 3.261 1.087 7.609-1.25 8.913Z" fill="#fff"/><path d="M30.38 153.804h-3.152s.435 5.924-1.902 8.044h1.087s4.021-1.468 3.967-8.044Z" fill="#E4E4F9"/><path d="M99.891 159.782H88.804c-.57 0-1.032.463-1.032 1.033v.842c0 .571.462 1.033 1.032 1.033h11.087c.57 0 1.033-.462 1.033-1.033v-.842c0-.57-.463-1.033-1.033-1.033Z" fill="#02C1B7"/><path d="M87.554 162.663H43.858a1.905 1.905 0 0 1-1.739-1.196l-9.62-27.989a1.844 1.844 0 0 1 .243-1.668 1.843 1.843 0 0 1 1.497-.777h45.543a1.74 1.74 0 0 1 1.74 1.25l7.717 27.989a1.791 1.791 0 0 1-1.685 2.391Z" fill="#02C1B7"/><path d="M86.684 162.663h-43.64a1.793 1.793 0 0 1-1.74-1.196l-9.674-27.989a1.85 1.85 0 0 1 1.74-2.446h45.597a1.849 1.849 0 0 1 1.74 1.25l7.717 27.989a1.797 1.797 0 0 1-.899 2.208c-.261.128-.55.192-.84.184ZM92.01 160.924h-2.119v.5h2.12v-.5ZM99.619 160.924h-1.033v.5h1.033v-.5Z" fill="#00F8F6"/><path d="M62.387 149.162c.946-1.165.6-3.014-.775-4.131-1.374-1.117-3.255-1.078-4.202.086-.946 1.165-.6 3.015.775 4.132 1.374 1.116 3.255 1.078 4.202-.087Z" fill="#02C1B7"/></g><path d="M199.5 100c0 54.952-44.548 99.5-99.5 99.5S.5 154.952.5 100 45.048.5 100 .5s99.5 44.548 99.5 99.5Z" stroke="#E0E0E0"/></svg>