<svg width="200" height="200" fill="none" xmlns="http://www.w3.org/2000/svg"><g clip-path="url(#a)"><mask id="b" style="mask-type:alpha" maskUnits="userSpaceOnUse" x="0" y="0" width="201" height="200"><path d="M100.109 200c55.228 0 100-44.772 100-100s-44.772-100-100-100C44.88 0 .109 44.772.109 100s44.771 100 100 100Z" fill="#A86252"/></mask><g mask="url(#b)"><path d="M384.674-121.196h-572.717V96.098h572.717v-217.294Z" fill="#D0D0F7"/><path d="M384.674 92.663h-572.717v228.549h572.717V92.663Z" fill="#F3F3FF"/><path d="M384.674-48.967h-572.717V87.408h572.717V-48.967Z" fill="#fff"/><path d="M149.565 61.413h42.609s.163-6.74-8.696-5.978c-3.641-5.544-8.75-2.663-8.75-2.663s-4.511-7.555-11.793-4.185c-6.033-.49-7.718 5.326-7.718 5.326s-6.032-.49-7.173 3.804c-3.261.163-6.033 1.468-5.816 3.696h7.337ZM96.25 68.696H54.13s-.163-5.272 8.642-4.729c3.587-4.293 8.587-2.065 8.587-2.065s4.51-5.924 11.685-3.26c5.978-.381 7.608 4.184 7.608 4.184s5.979-.38 7.12 2.99c3.206.108 5.924 1.14 5.706 2.88H96.25ZM139.946 9.783h-28.968s-.109-3.642 5.924-3.261a5.163 5.163 0 0 1 5.924-1.468s3.098-4.076 8.043-2.228c4.131-.272 5.218 2.88 5.218 2.88s4.13-.271 4.946 2.066c2.173.108 4.076.76 3.913 2.01h-5Z" fill="#F3F3FF"/><path opacity=".3" d="M103.533 87.391H75.815l86.631-136.358h27.663L103.533 87.39ZM115.109 87.391h-6.902l86.63-136.358h6.848L115.109 87.39Z" fill="#E4E4F9"/><path d="M44.565 80.326c-1.684 9.348-2.934 40.217-4.782 49.511-.06.476-.15.949-.272 1.413l-1.305.272c.164-.652.218-2.337.327-2.989 2.01-9.294 3.64-39.022 5.271-48.424.163-.816.87-.598.761.217ZM65.326 83.587A89.023 89.023 0 0 0 54.348 72.39c-2.99-2.5-6.25-4.51-9.511-6.63-3.261-2.12-6.359-4.13-10-5.49-1.902-.76-4.674-1.521-6.794-1.304-1.25.11-1.847 1.033-1.956 2.61-.109 1.575.815 3.532 1.685 4.727a24.18 24.18 0 0 0 4.565 4.566c4.185 3.152 9.13 5.054 13.967 6.847C52.446 80.11 58.75 82.12 65 84.185c.326.108.543-.38.326-.598Z" fill="#BEBAF7"/><path d="M27.01 61.576c-.054.544-.054 1.087-.054 1.685v3.858c0 1.74-.054 3.533-.054 5.272v6.359c0 2.337 0 4.62-.054 6.957v7.173c0 2.337 0 4.674-.055 7.011v6.359c0 .326.163 21.087.163 21.413 0 1.196.11 3.478.11 4.674h-1.25c.053-1.141-.055-3.424-.055-4.783.217-16.304.38-66.304.38-66.576 0-.272.326-.706.652-.652.326.054.218.978.218 1.25Z" fill="#BEBAF7"/><path d="M25.652 76.359a5.687 5.687 0 0 0-.435-.598 4.13 4.13 0 0 0-2.282-1.359c-2.446-.652-5.109.272-7.392 1.468a37.772 37.772 0 0 0-8.315 6.684c-.598.707-1.25 1.359-1.902 2.066-1.413 1.63-2.772 3.26-4.076 5L.109 91.195-.978 92.88l-.38.598a52.109 52.109 0 0 0-2.555 4.892c-.49 1.14-2.065 3.967-1.522 5.163 4.674-2.772 9.728-4.837 14.62-7.337 4.891-2.5 9.565-5.49 13.097-9.783a16.792 16.792 0 0 0 3.533-6.576c.272-1.141.38-2.446-.163-3.478Z" fill="#A2A6E2"/><path d="M25.87 132.391c-.11-1.25-.272-3.532-.327-4.782-.163-2.555-.489-25.598-.598-28.152a341.013 341.013 0 0 1-.217-6.685c-.109-5.055-.598-10.326-.489-15.38 0-.381.217-1.522-.435-1.305-.652.217-.38.435-.489.706-.109.272 0 5.598.054 7.392.055 1.793.218 4.239.272 6.358a83.34 83.34 0 0 0 .218 4.566c.054 2.391.163 4.728.271 7.119.109 2.392.326 23.75.38 25.381.055 1.63.218 3.532.272 4.782h1.087ZM30.652 44.783c-.652 20.815-.924 62.119-1.521 82.934-.055 1.196 0 3.37 0 4.566h-1.25c0-1.196-.055-3.479 0-4.674.652-20.816 1.14-62.011 1.847-82.826 0-.761.979-.816.924 0ZM40.326 73.696c-1.141 11.467-1.902 43.261-2.989 54.674-.054.76 0 2.554-.109 3.315l-1.25.163c.11-.87.055-2.772.164-3.641 1.14-11.468 2.12-43.37 3.315-54.837.054-.87.978-.544.87.326Z" fill="#A2A6E2"/><path d="M37.826 59.022c.054-.87-.815-1.033-.87-.163-.217 4.021-.489 8.098-.706 12.12-.217 4.021-.598 9.619-.87 14.401-.489 7.392-.76 35.218-1.195 42.609-.109 1.033-.055 3.044-.109 4.022l1.25-.109c.054-.924.054-2.88.054-3.804.435-7.446.653-35.38 1.033-42.88l.49-9.077.325-5.652c.163-3.804.38-7.663.598-11.467ZM26.848 132.337h-1.25c-.163-1.25-.435-3.533-.598-4.783-.163-1.25-.652-23.75-.87-25.38a7058.643 7058.643 0 0 0-7.01-49.457c-.163-.87.652-1.684.76-.87 1.848 12.773 3.86 25.707 5.761 38.642l1.305 8.913c.38 2.554.924 25.598 1.304 28.152.163 1.305.435 3.587.598 4.783Z" fill="#BEBAF7"/><path d="M21.956 132.391h-1.25c-.163-1.25-.38-3.532-.543-4.728-1.74-13.967-4.022-48.315-6.63-62.065-.163-.815.87-.815.978 0 2.608 13.804 5.054 48.098 6.902 62.011.109 1.25.38 3.532.543 4.782Z" fill="#A2A6E2"/><path d="M17.5 132.283h-1.304c-.163-1.142-.435-3.261-.653-4.403-1.847-11.413-4.184-43.423-6.684-54.565-.163-.87.978-.706 1.195.109 2.446 11.304 4.837 42.989 6.74 54.402.217 1.087.489 3.261.706 4.457Z" fill="#BEBAF7"/><path d="m9.13 131.522-1.413-.326-.598-1.142C4.73 125 2.12 98.424-.27 93.37c-.327-.761.38-1.196.76-.435 2.391 5.163 5.163 31.685 7.717 36.793l.924 1.794Z" fill="#A2A6E2"/><path d="M6.413 71.413c-.76-.87-1.467.109-1.793.76a72.563 72.563 0 0 0-2.718 7.5l3.424-2.39a.217.217 0 0 1 .055-.163c.519-1.26.901-2.572 1.14-3.913.11-.49.273-1.36-.108-1.794Z" fill="#2C5732"/><path d="M9.892 71.196a1.848 1.848 0 0 0-.327-.653 2.39 2.39 0 0 0-.434-.597l-.653-.544a6.086 6.086 0 0 0-2.826-1.141c-2.771-.326-5.76.435-8.532 1.413l-3.044 1.141-1.413.598-4.293 2.065-1.468.816-3.37 1.902a82.98 82.98 0 0 0-7.119 4.565 36.306 36.306 0 0 0-2.826 2.228 30.545 30.545 0 0 0-5.598 6.25 14.129 14.129 0 0 0-1.576 2.554c-.07.253-.05.521.055.761h.054c.543.435 3.641-.543 4.348-.652 5.706-.978 11.467-2.12 16.902-4.293l.815-.272 2.011-.924.217-.109.49-.217 1.195-.598 1.305-.706.434-.272 1.522-.87.217-.163 1.74-1.032 4.184-2.826 3.424-2.392 2.555-1.793c1.413-.924 2.717-2.337 2.01-4.24Z" fill="#BEBAF7"/><path d="M15.054 64.728a16.687 16.687 0 0 0-1.25-3.478c-.217-.38-.38-.815-.598-1.25a34.622 34.622 0 0 0-5-7.174 45.171 45.171 0 0 0-3.26-3.206 28.2 28.2 0 0 0-2.5-1.957L.38 46.141l-2.608-1.576-2.392-1.304-2.282-1.141c-2.5-1.196-5-2.174-7.555-3.153l-6.956-2.445h-.055c-.271-.109-.434.163-.38.38v.163c.815 4.185 2.935 7.88 5.38 11.305.1.064.177.16.218.271a67.949 67.949 0 0 0 3.913 4.783l1.25 1.413a48.366 48.366 0 0 0 2.935 2.826c1.032.924 1.032.924 1.63 1.359a33.049 33.049 0 0 0 4.24 2.989 34.24 34.24 0 0 0 3.912 2.174l.598.326a53.258 53.258 0 0 0 10.815 3.424c.354.101.726.12 1.087.054l.435-.163c.188-.164.336-.369.435-.598.326-.706.163-1.793.054-2.5ZM42.12 3.043c0-.815 0-1.684-.055-2.554a98.451 98.451 0 0 0-.271-3.26c-.11-1.088-.435-3.262-.707-4.892-.272-1.63-.326-1.902-.543-2.88v-.218c-.163-.706-.272-1.359-.435-2.065l-.163-1.033-.49-2.826a.326.326 0 0 0-.543-.163l-1.195 1.576-.272.38-.978 1.305-.218.326a17.86 17.86 0 0 0-1.087 1.685l-.109.109-1.032 1.684h-.054c-.327.49-.598.979-.87 1.468l-.163.272-.87 1.63a67.176 67.176 0 0 0-3.641 8.37l-.652 1.902-.163.652a9.332 9.332 0 0 0-.38 1.141.22.22 0 0 1-.055.163l-.163.707-.326 1.195a3.096 3.096 0 0 0-.217.761c-.117.41-.208.828-.272 1.25l-.163.598-.326 1.467c0 .164-.055.327-.055.435l-.163.652c0 .218-.054.435-.054.653-.099.448-.172.902-.217 1.358l-.164 1.033c-.108.815-.217 1.576-.271 2.391-.055.815-.163 1.794-.218 2.718-.054.923-.054 1.087-.054 1.63-.108 3.54.055 7.083.49 10.598a32.396 32.396 0 0 0 1.412 6.522c.326 1.075.801 2.1 1.413 3.043.544.924 1.359 1.63 1.957 2.5l.217.218c.109.054.272 0 .38 0l.272-.11c4.457-1.195 6.522-5.271 8.207-9.401.217-.49.435-1.033.598-1.522a1.63 1.63 0 0 0 .217-.544L40 32.99c.054-.217.163-.435.218-.706l.217-.707c.109-.326.163-.652.272-.978v-.163h.054c0-.163.054-.272.054-.435l.163-.544c0-.108.055-.162.055-.271.046-.332.119-.659.217-.979l.163-.923c.055-.49.163-.979.218-1.468a.489.489 0 0 1 .054-.271v-.218l.163-1.522v-.108l.163-1.957c0-.815.054-1.63.054-2.445v-4.022c.055-3.968.163-8.207.055-12.229Z" fill="#A2A6E2"/><path d="M22.337 98.098c0-.055-.054-.109-.054-.163l-.11-.163a1.956 1.956 0 0 0-.38-.544 2.989 2.989 0 0 0-1.467-.924c-2.174-1.25-6.522.816-8.207 1.74a33.36 33.36 0 0 0-4.836 2.88 57.241 57.241 0 0 0-4.946 3.859l-.978.869a103.234 103.234 0 0 0-4.946 4.783 52.006 52.006 0 0 0-5.38 6.521 37.875 37.875 0 0 0-4.403 8.479c-.217.489-.38.978-.543 1.467-.163.489-.054.163-.054.218 0 .054.108.543.434.434a41.954 41.954 0 0 0 6.576-2.011l1.74-.706.923-.435.598-.272.435-.217 2.011-1.033 2.717-1.521.761-.489c2.011-1.25 4.022-2.664 5.924-4.077 1.902-1.413 3.587-2.663 5.326-4.021l.218-.109a40.406 40.406 0 0 0 5-4.674 20.937 20.937 0 0 0 3.152-4.891c.706-1.522 1.25-3.37.489-5Z" fill="#BEBAF7"/><path d="M87.01 28.641a.218.218 0 0 0-.234-.143.217.217 0 0 0-.091.035 66.304 66.304 0 0 0-13.153 6.63c-2.717 1.74-5.326 3.641-7.88 5.652-.978.707-1.902 1.468-2.826 2.229l-2.554 2.119-2.61 2.228a104.175 104.175 0 0 0-11.032 10.87c-1.413 1.685-2.772 3.478-4.076 5.272-1.304 1.793-2.772 4.347-3.37 6.902-.217.924-.434 2.065 0 2.934.113.19.26.356.435.49l.163.163c2.011 1.141 5.653.217 7.664-.544a25.057 25.057 0 0 0 7.173-4.184l1.577-1.25 1.739-1.414.38-.326 1.304-1.087c1.196-1.032 2.392-2.065 3.533-3.206l.87-.815a70.41 70.41 0 0 0 3.587-3.75c.44-.586.913-1.148 1.413-1.685l1.63-2.011a219.753 219.753 0 0 0 5.272-6.685l.598-.815c.706-.924 1.413-1.902 2.173-2.826l1.685-2.337a61.574 61.574 0 0 0 6.413-11.359l.326-.815c0-.109 0-.217-.108-.272Z" fill="#A2A6E2"/><path d="M83.75-8.913h-.109c-6.304 3.37-11.63 7.772-16.25 12.228l-.815.87c-.407.353-.789.734-1.141 1.141A78.285 78.285 0 0 0 62.5 8.424c-3.261 3.587-6.141 7.01-8.804 9.946l-2.066 2.39a103.133 103.133 0 0 0-3.641 4.566c-1.196 1.576-2.283 3.152-3.37 4.783a65.751 65.751 0 0 0-4.782 8.532 62.533 62.533 0 0 0-2.88 7.229c-1.087 3.424-2.935 7.88-1.903 11.576a5.216 5.216 0 0 0 1.522 2.663l.544.38c2.5 1.468 6.304-.38 8.75-2.282a32.77 32.77 0 0 0 5.054-5.218c.815-1.032 1.576-2.12 2.337-3.206l1.902-2.88v-.11l1.902-2.934 3.696-5.707 1.413-2.337a144.05 144.05 0 0 0 3.37-5.489l3.478-5.87 2.934-5.217A182.21 182.21 0 0 0 80.816.924c1.25-3.207 2.336-6.304 3.151-9.24.055-.054.055-.162.109-.217a.38.38 0 0 0-.326-.38Z" fill="#BEBAF7"/><path d="M62.283 115.978a.162.162 0 0 0 0-.217 49.443 49.443 0 0 0-5.49-10.815l-1.304-1.957c-.598-.924-1.25-1.793-1.902-2.663-2.12-2.826-4.402-5.598-6.685-8.206l-1.739-1.957-.272-.326a63.976 63.976 0 0 0-5.326-5.815 21.912 21.912 0 0 0-2.5-2.066c-2.608-1.902-5.489-2.934-8.587-2.065-.652.218-1.413.38-2.065.652l-.598.272-.706.544c-1.576 1.467-.761 5.598-.055 7.5.707 1.902 2.283 3.478 3.75 4.945l1.522 1.63 1.142 1.196 1.358 1.36a61.072 61.072 0 0 0 6.359 5.543c.054.108.163.163.217.217l.924.652 1.25.87c3.044 2.119 6.413 4.185 9.511 5.924l2.337 1.25 2.446 1.25.434.217.326.163.49.217.271.109 1.413.598h.055l.598.217h.054l1.956.761h.055a.056.056 0 0 0 .016.039.044.044 0 0 0 .017.011.05.05 0 0 0 .021.005h.272a.28.28 0 0 0 .136.036.28.28 0 0 0 .136-.036l.108-.109a.216.216 0 0 0 .055-.163v.217Z" fill="#A2A6E2"/><path d="m78.641 107.228-1.087-2.282-.326-.598c-.38-.707-.76-1.468-1.196-2.174-.434-.707-.054-.109-.054-.163l-1.25-2.065-.326-.49a54.828 54.828 0 0 0-3.587-5.163 68.14 68.14 0 0 0-4.565-5.217 45.868 45.868 0 0 0-3.587-3.424l-1.848-1.467c-.482-.446-.99-.864-1.522-1.25a54.236 54.236 0 0 0-5.163-3.533l-2.228-1.195a8.478 8.478 0 0 0-5-.979l-.598.163a3.043 3.043 0 0 0-1.576.87c-1.413 1.413-1.739 2.446-.543 4.076a13.912 13.912 0 0 0 2.88 3.043l.924.761c1.129.9 2.309 1.735 3.533 2.5l2.39 1.522 1.142.707 1.63 1.032 3.262 2.12 1.684 1.141a173.932 173.932 0 0 1 6.468 4.565l3.424 2.5 1.467 1.196 2.283 1.848.543.38 2.337 2.011c.272.217.652-.054.49-.435ZM19.837 47.446c-.163-2.609-1.196-5.218-2.228-7.555a29.24 29.24 0 0 0-2.337-4.13 61.285 61.285 0 0 0-5.218-6.576L7.88 26.956l-3.206-3.043-2.065-1.848-1.413-1.195-1.522-1.196-3.696-2.826-2.826-1.957-.706-.434-2.935-1.74-1.848-1.032-3.098-1.74c-1.63-.923-3.533-1.956-4.837-2.771-1.304-.815-1.25-.978-1.196-.815.055.163 6.468 10.054 12.88 19.293l.11.109c1.63 2.337 3.26 4.674 4.837 6.848h.108l1.087 1.521.109.11 1.033 1.412h.054c1.467 1.902 2.772 3.478 3.859 4.674l.923.978h.055A76.798 76.798 0 0 0 15 51.087h.054l.435.272h.054l.38.217.11.109.162.108.164.11.163.108h.108l.163.109h.11a.055.055 0 0 0 .015.038.054.054 0 0 0 .038.016h.163l.653.217v-.489l.543-.38c1.087-.544 1.63-2.392 1.522-4.076Z" fill="#BEBAF7"/><path d="m.978 93.26-.217-.488c-1.413-2.011-3.533-3.37-5.652-4.457-1.087-.598-2.229-1.087-3.37-1.576-1.141-.489-3.37-1.196-5.109-1.685h-.38l-.924-.271-.652-.163a62.222 62.222 0 0 0-3.75-.653l-2.01-.271-1.631-.11h-7.5a46.216 46.216 0 0 0-3.86.327 22.775 22.775 0 0 0-5.38 1.25c-1.575.67-3.1 1.45-4.565 2.337l-.272.109-.271.271a.217.217 0 0 0-.055.272c.004.042.023.081.055.109a.977.977 0 0 0 .543.109 15.822 15.822 0 0 1 3.207.054l2.608.38 4.022.707.707.163 1.413.272 2.282.434 2.337.49c1.993.362 4.004.797 6.033 1.304l1.087.217 3.913.924h.435l1.63.326h.272l1.359.218h.38l1.522.217h.054l1.304.109h7.392c.76 0 2.065.272 2.772-.055a.435.435 0 0 0 .217-.217c.109-.054.109-.163.109-.272a.761.761 0 0 0-.055-.38ZM36.576 60.163S60.924 11.304 83.641-8.859C79.402-3.967 58.804 20.49 48.207 42.174c-9.077 16.739-10.435 19.728-11.63 17.989ZM43.696 79.565s1.467-3.532 11.032 4.185c9.566 7.717 22.61 21.522 23.913 23.587-.163-.435-18.37-18.641-24.402-22.772-6.032-4.13-7.989-5.543-10.543-5ZM64.891 83.424c.218.163-24.51-20.49-37.337-22.826-.109.326-.435.272.924.924s13.533 4.348 36.413 21.902ZM-18.859 8.859S12.61 39.89 17.61 50.706c.217-.869-5-13.913-36.468-41.847Z" fill="#A2A6E2"/><path d="M8.859 71.576s-6.142-5.76-40.272 20.054c.978-.326 25.706-19.673 40.272-20.054ZM20.109 97.935c1.304-.435-8.261.978-31.903 27.989 1.577-1.413 25.218-25.707 31.903-27.99Z" fill="#A2A6E2"/><path d="M40.326 72.663s6.957-9.891 44.892-42.88C75.162 39.62 41.25 72.01 40.325 72.663ZM30.652 43.26s-5.272-19.782 7.391-56.358c-3.587 12.065-7.771 20.272-7.39 56.359ZM27.554 81.902c1.902 0 11.468 6.468 32.555 32.337-.435-.489-32.555-32.337-32.555-32.337ZM13.532 65.598s-16.087-17.174-32.39-27.392c1.52 1.413 32.39 27.392 32.39 27.392ZM166.033 190.924l-.924 60.87 5 1.032 1.63-65.163-5.706 3.261Z" fill="#BEBAF7"/><path d="M81.848 193.641c.924.272 46.087 9.348 46.087 9.348s2.174-2.282 2.5-2.772c.326-.489 42.283-11.467 42.283-11.467l8.75-83.37-27.011-2.663-33.37 74.783-26.358 8.098-12.88 8.043Z" fill="#BEBAF7"/><path d="m179.565 105.272 3.968.326a1.138 1.138 0 0 1 1.087 1.304c-3.315 19.565-11.087 60.326-9.674 144.402l-4.837 1.522s.217-54.239.815-74.348c.815-27.608 8.641-73.206 8.641-73.206Z" fill="#A2A6E2"/><path d="m172.718 190.978-40.598 10.598-.979 62.174-4.619 1.413-.163-68.098 46.359-11.467v5.38Z" fill="#A2A6E2"/><path d="m111.142 185.38-24.022 4.946-3.805 52.391s-16.521 4.783-24.184-1.902c0-10.761-2.5-48.261 0-62.065 2.989-16.902 32.663-22.337 60.38-32.663 18.315-6.794 33.913.38 36.087 6.467 2.174 6.087-27.065 31.033-27.065 31.033l-17.391 1.793Z" fill="#002A49"/><path d="M131.196 157.554s-27.826 13.316-31.685 21.087c-3.859 7.772-3.859 6.468-2.772 27.337 1.087 20.87 1.74 46.033 1.74 46.033s12.662 6.63 26.249-.489c.272-1.794-1.032-55.598-1.032-55.598s30.489-5.924 37.445-12.065c6.957-6.142-3.641-30.435-6.793-30.979-3.152-.543-23.152 4.674-23.152 4.674Z" fill="#002A49"/><path d="M121.794 61.63s2.717 3.533 4.511 5.979c1.793 2.445 5.38 10.271 4.456 14.782-.924 4.511-4.13 10.435-10 10.272-5.869-.163-7.771.163-9.021-6.956-1.25-7.12-3.37-15.598-2.826-17.935.543-2.337 12.88-6.142 12.88-6.142Z" fill="#A86C54"/><path d="M129.837 86.141c-1.902 2.446-4.945 4.511-9.565 4.566-4.619.054-6.902-2.826-7.283-5.544a18.944 18.944 0 0 1-2.119-3.967s-4.565 19.837-4.565 22.228c0 2.391 4.945 37.228 5.434 40.761.49 3.532 15.979 12.935 17.881 12.174 1.902-.761 7.935-9.729 7.935-9.729s-5.326-45.815-7.718-60.489Z" fill="#EE685F"/><path d="M120.381 92.01c4.62-.053 7.554-2.662 9.457-5.162-.49-2.826-.816-4.511-.979-4.565-.163-.055-1.848 7.717-8.369 7.608-3.479-.054-5.924-2.445-7.5-4.728.38 2.718 2.011 6.902 7.391 6.848ZM112.501 85.924s-.163 28.37.761 34.456c.923 6.087 12.934 11.196 12.934 11.196l-6.739.544a3.204 3.204 0 0 0-2.935 3.206l.272 15.163-3.152.598s-2.391-20.272-3.478-28.75c-1.087-8.478-.326-31.413 2.337-36.413Z" fill="#CD5B51"/><path d="M127.12 68.859s5.924 2.5 10.435 4.184c4.511 1.685 24.348 3.261 26.25 14.946 1.902 11.685 2.663 44.185 7.065 61.413 4.402 17.228 7.989 25.218 7.717 32.391-2.391 3.805-14.673 13.587-17.065 14.077-2.391.489-3.75-5.598-9.185-16.74-5.434-11.141-13.369-24.293-15.76-29.837-2.392-5.543-8.316-23.423-6.957-39.293 1.359-15.87.218-35.707-2.5-41.141ZM111.087 72.283s-12.39 7.065-14.674 9.728c-.489 4.674 2.174 25.598 9.892 47.391 7.717 21.794 8.206 24.946 8.206 24.946s-5.054-28.533-5.434-41.576c-.381-13.044 2.554-37.229 2.01-40.49Z" fill="#003668"/><path d="M124.729 65.435s6.684 4.022 7.5 6.032c.815 2.011 4.456 9.13 4.293 15a24.055 24.055 0 0 0-2.011 2.935l3.044-.38s.597 2.771-1.25 10.489c-1.848 7.717-6.196 31.522-.326 48.369-1.305-3.641-8.044-18.369-8.316-34.565-.271-16.195.381-31.25.163-35.76-.217-4.512.435-7.5-3.097-12.12ZM113.207 77.717s-1.739 19.729-2.011 27.772c-.272 8.044 1.956 39.891 2.446 43.587-1.305-2.119-4.294-14.239-6.305-29.185-2.011-14.945-2.608-25-2.608-25l2.391-2.826-1.685-.652 2.283-10.217a41.524 41.524 0 0 1 3.369-8.913l2.12-.979v6.413Z" fill="#002A49"/><path d="M89.294 121.087c.109-.326 1.74-14.946 2.717-25.326.979-10.38 2.88-12.554 5.272-14.565 6.685-5.598 10.217 32.5 10.217 39.076 0 6.576 1.142 12.663-2.065 13.804-2.011.707-7.01 3.044-10.272-1.902a84.602 84.602 0 0 1-5.87-11.087Z" fill="#003668"/><path d="M151.414 99.348s-.218 19.076 2.228 31.576 1.196 15.217 1.196 15.217 8.206 3.968 10.271 3.642c2.066-.326 5.489-1.903 5.489-1.903s-2.228-8.315-2.173-11.684c.054-3.37-17.011-36.848-17.011-36.848ZM149.783 130.326c-.38-.326-7.065-.815-7.608-.326-.544.489.217 10.924 1.739 11.902 1.521.978 7.011 2.881 7.717 2.935.707.054-1.848-14.511-1.848-14.511Z" fill="#002A49"/><path d="M152.881 77.174c5.489 1.793 14.239 4.782 16.685 14.51 2.445 9.729 8.75 32.175 8.532 39.186-.217 7.01.218 10.217-5.598 11.576-5.815 1.358-10.978 3.641-14.347 4.021-3.37.381-7.283-.652-7.283-.652s.652-12.445-1.739-15.706c.652-.381 3.261-.381 5-.652.924-.16 1.833-.396 2.717-.707 0 0-3.858-10-4.565-20.761-.706-10.76-2.826-31.902.598-30.815Z" fill="#003668"/><path d="m110.816 127.283-2.174 1.304 2.5.109a6.634 6.634 0 0 0-.326-1.413Z" fill="#E3E2F7"/><path d="m109.294 128.152-.652.435h.76l-.108-.435Z" fill="#002A49"/><path d="M135.055 126.087s-.924-1.033-3.315-2.065c-2.392-1.033-2.772-1.359-6.033-1.413-3.261-.055-4.456-.109-5.598-.381-1.141-.271-2.119-.108-2.228.87-.109.978 1.957 1.63 2.446 2.119.489.49 12.065 5.272 13.424 4.566 1.358-.707 1.63-3.37 1.304-3.696Z" fill="#A86C54"/><path d="M118.044 122.663s1.63 1.141 5.543 1.25c3.914.109 8.044.163 8.642.489.598.326.706.87.163.87-.544 0-4.511-.381-5.272-.489-.761-.109-7.717-.272-8.478-.598a.994.994 0 0 1-.431-.21.974.974 0 0 1-.167-1.312Z" fill="#885541"/><path d="m132.826 123.641-21.684 5.055a1.768 1.768 0 0 1-.326-.653 1.295 1.295 0 0 1 0-.76l21.684-5.055.326 1.413Z" fill="#7451EB"/><path d="M132.875 123.388c.327-.05.539-.428.475-.843-.065-.416-.381-.711-.707-.661-.327.051-.539.428-.475.844.064.415.381.711.707.66Z" fill="#E3E2F7"/><path d="M133.065 123.248c.267-.041.443-.339.392-.666-.05-.326-.308-.557-.575-.516-.267.042-.442.34-.392.666.051.326.308.557.575.516Z" fill="#002A49"/><path d="M143.098 130.163s1.196 1.63 1.305 4.891a36.82 36.82 0 0 1-.435 6.142 10.223 10.223 0 0 0-1.957-.87 16.463 16.463 0 0 0-4.945.544 12.718 12.718 0 0 1-5.489.76c-2.011-.217-7.826-2.065-8.696-2.608-.87-.544-2.446-2.392-2.337-3.805-1.304-.652-2.772-1.793-2.717-2.826a4.453 4.453 0 0 1 .38-1.576s-2.011-1.195-1.793-2.337l.271-1.304s-1.902 0-1.956-1.141c-.055-1.142 1.63-1.903 3.043-2.011h4.946l5.761.543c.326.055 5.326.326 6.576 1.522s5 4.185 8.043 4.076Z" fill="#A86C54"/><path d="M114.729 126.033s.326.652 1.358.326c1.033-.326.816-1.957.653-1.957-.164 0-2.174.272-2.011 1.631Z" fill="#BC826D"/><path d="M115.435 87.88s2.663 2.827 5.163-1.032c2.5-3.859 1.631-14.565 1.631-14.565l-6.794 15.597ZM114.783 126.359s.707.598 3.968.761c3.26.163 6.684 1.087 7.663 1.195l4.13.544c-1.504.155-3.022.1-4.511-.163-2.554-.489-5.326-1.142-6.848-1.142-1.521 0-2.445-.108-2.608.109l.108-.489s-1.413.109-1.902-.815ZM116.414 128.696s.38 1.576 3.75 2.5c3.369.924 8.206 1.63 8.913 1.684.706.055.326.272-.109.272s-3.424-.326-6.413-.869a23.147 23.147 0 0 1-4.457-1.142l.109-.326a2.602 2.602 0 0 1-1.793-2.119ZM117.881 132.772a15.706 15.706 0 0 0 5.652 3.369l5.326 1.631s-.326.271-1.141 0c-.815-.272-5.218-1.196-5.924-1.468l-1.196-.38-.108-.652s-2.174-1.033-2.609-2.5Z" fill="#885541"/><path d="M122.337 138.587s4.348 1.63 6.957 2.011a16.19 16.19 0 0 0 7.065-.272c2.391-.598 6.685-.598 6.848-.815 1.141-1.685.924-6.685.924-6.685s.924 3.424-.163 8.37a7.767 7.767 0 0 0-4.185-.707c-2.337.272-5 1.359-7.12 1.304a23.353 23.353 0 0 1-7.445-1.739c-2.446-.924-2.609-1.195-2.881-1.467Z" fill="#885541"/><path d="m135.109 281.196-6.957-2.174v-124.62l6.957 2.174v124.62Z" fill="#A2A6E2"/><path d="m142.174 279.565-7.011 1.631v-124.62l7.011-1.63v124.619ZM5.272 250.543l-6.957 1.631V134.022l6.957-1.631v118.152Z" fill="#BEBAF7"/><path d="M172.5 147.5v5.054L-21.576 192.12l-166.467-41.577v-3.967l360.543.924Z" fill="#BEBAF7"/><path d="M-12.337 122.935 172.5 147.5-21.957 185l-166.086-38.424 175.706-23.641Z" fill="#E3E2F7"/><path d="M27.772 147.772c1.63.326 30.217 5 36.413 6.467.272.109.217 2.174-.055 2.228l-29.076 6.305c-.56.09-1.132.072-1.684-.055l-36.25-9.402c-.326-.108-.38-2.065-.11-2.119l30.653-3.424h.109Z" fill="#02C1B7"/><path d="M27.99 146.033c4.238.978 30.217 6.684 36.086 8.097.272.055.326.435.055.49l-29.457 6.195a4.403 4.403 0 0 1-1.685-.054l-35.76-9.185c-.327-.054-.327-.435-.055-.489l29.674-5.054a2.05 2.05 0 0 1 1.141 0Z" fill="#00F8F6"/><path d="M27.772 146.739c3.098.707 25.38 5.544 30.326 6.739.272.055.326.381.054.435l-24.456 5.109a2.89 2.89 0 0 1-1.359 0l-30.49-7.663c-.27-.109-.27-.381-.053-.435l25.271-4.185c.232-.055.475-.055.707 0Z" fill="#fff"/><path d="M48.76 156.902c.002-.12-.24-.221-.54-.225-.3-.004-.544.09-.546.21-.002.12.24.22.54.225.3.004.545-.09.547-.21Z" fill="#02C1B7"/><path d="m30.108 161.141-1.358-.38a.325.325 0 0 1-.272-.326.275.275 0 0 1 .132-.145c.06-.03.13-.036.194-.018l1.359.38a.325.325 0 0 1 .272.326.272.272 0 0 1-.326.163ZM27.826 160.543h-.109c-.163-.054-.271-.217-.217-.326 0-.163.163-.217.326-.217h.109a.38.38 0 0 1 .217.326c0 .163-.163.272-.326.217Z" fill="#00F8F6"/><path d="M31.63 153.533a8.359 8.359 0 0 0 2.881-.653c.109-.054.109-.054-.109-.108l-2.174-.272h-.326c-1.195.435-3.587.38-4.293-.109-.707-.489.652-.924 2.391-.978h.272l.543-.543c.055-.055.055-.055-.163-.055-2.228-.054-4.51.326-5.434.87-.924.543-.544.761-.163 1.032.38.272 3.913 1.087 6.576.816Z" fill="#7451EB"/><path d="M89.294 121.087a25.101 25.101 0 0 0-5.055 2.12c-.598.38-14.565 4.293-15.217 4.51-.652.218 4.782 4.62.76 11.631 3.37-.489 19.729-.707 23.75-1.305 4.023-.597 7.881-2.554 9.892-3.26 2.011-.707 2.011-11.848-3.152-14.348s-9.891.272-10.978.652Z" fill="#003668"/><path d="M49.24 143.424s-.653.272-.055.435L81.63 150h.163l43.804-7.88a.541.541 0 0 0 .374-.517.541.541 0 0 0-.374-.516l-33.152-3.913h-.163l-43.044 6.25Z" fill="#7451EB"/><path d="m82.066 148.587 42.826-7.391-32.228-3.859-39.077 5.87 28.479 5.38Z" fill="#fff"/><path d="m73.968 143.967 13.315 1.903M77.12 143.478l13.315 1.902M80.272 142.935l13.315 1.956M83.424 142.446l13.316 1.956M78.587 140.924l21.305 2.935M81.74 140.435l21.304 2.935M84.892 139.946l21.25 2.934M88.044 139.402l21.25 2.935M91.142 138.913l21.304 2.935" stroke="#7451EB" stroke-width=".25" stroke-miterlimit="10" stroke-linecap="round"/><path d="m56.033 140.054 8.695-.434c.598 0 4.946-.707 6.196-.761 1.25-.055 1.413-4.783.924-6.794-.49-2.011-1.848-4.022-2.174-4.239-.326-.217-2.5-.272-3.37-.978l-1.521-1.25s-1.848-1.576-2.935-2.391c-1.087-.816-1.902-1.468-3.044-1.087-1.14.38-2.826 1.902-3.152 2.173-1.739 1.142-3.37 2.609-4.13 4.511-.761 1.902-2.337 11.631 4.51 11.25Z" fill="#A86C54"/><path d="m18.913 141.902 36.74-6.087-28.153-4.076-34.728 5.109 26.141 5.054Z" fill="#fff"/><path d="M57.5 130.326s4.403 3.75 2.718 7.554c-1.685 3.805-5.598 5.163-6.63 5.326 0 0 28.315 5.435 28.478 5.381 0 0 2.554-2.011 4.239-7.881 1.685-5.869.163-12.554-7.663-14.293-10.652-.543-14.13-.272-14.892 0-.76.272-6.413 3.859-6.413 3.859l.163.054Z" fill="#E3E2F7"/><path d="M55.707 139.348s.217 0 .924-2.065c.38-1.087 4.022-3.859 4.51-4.674.49-.816 1.196-2.555-.923-2.446-2.12.109-4.294-2.554-5.218-2.554-.923 0-5.652.869-6.087 1.141-.434.272-1.576.543-1.902 1.793-.326 1.25.38 3.37 2.12 3.207-.761.924-.218 3.641 1.739 3.207-.598 1.25 2.228 3.858 4.837 2.391Z" fill="#A86C54"/><path d="M58.859 131.304s.543 1.359 1.359 1.033c.815-.326 1.576-1.25 1.304-1.902-.272-.652-2.446.054-2.663.869Z" fill="#BC826D"/><path d="M31.794 123.424s19.891 7.337 24.13 9.456c.761-.543 15.163-8.478 24.674-5.869-.87-.652-5.978-1.359-12.01-1.902-6.033-.544-17.174-1.739-19.022-2.337-1.848-.598-15.055-.707-17.772.652Z" fill="#fff"/><path d="M59.728 143.478a1.846 1.846 0 0 0-.978 1.087l.109.218L70 146.685s.49.217.598 0c.109-.218.76-.544.87-.978.108-.435.217-.381-.761-.598l-10.979-1.631Z" fill="#A2A6E2"/><path d="M70.544 145.543a.755.755 0 0 1-.38-.76c-.055-.272-.11-.49-.381-.544-.272-.054-3.315-.706-4.076-.543-.761.163-3.968.434-4.13.434l-.979-.38c.218 0 4.13-.435 4.891-.598.761-.163 3.805.435 4.403.598a1.036 1.036 0 0 1 .76.978c.031.229.105.451.218.652l-.326.163Z" fill="#A2A6E2"/><path d="M90.49 120.815c-.327.109 9.021-3.478 13.478 4.62-.653-3.424-4.185-8.424-13.479-4.62Z" fill="#002A49"/><path d="M121.957 63.315s1.793 7.174.652 12.718c-1.141 5.543-3.532 10.978-6.63 13.37-3.098 2.39-5.653 3.043-7.392.597l-1.739-2.446a1.8 1.8 0 0 1-1.16-.82 1.788 1.788 0 0 1-.198-1.407.656.656 0 0 0 .054-.707s-1.902.38-1.902-1.25c-.544.326-2.5.163-2.772-1.957l-.163-.978a2.282 2.282 0 0 1-2.174-2.066c-.326-2.119-2.935-4.076-3.37-4.13-.434-.054-1.956-.598-3.206-3.804-1.25-3.207-2.99-6.087-3.26-7.718-.273-1.63-.49-9.347 7.064-10.815 7.555-1.467 12.718-3.152 15.815-1.304 3.098 1.848 8.044 3.695 10.381 12.717Z" fill="#A86C54"/><path d="M106.522 87.446a4.182 4.182 0 0 0 3.207-.816 7.675 7.675 0 0 0 2.5-2.663s-.924 3.098-3.533 3.805c-1.685.434-2.174-.326-2.174-.326Z" fill="#885541"/><path d="M105.326 84.62s.109-.11.707-.218a7.01 7.01 0 0 0 3.695-1.848c1.468-1.413 2.826-3.043 2.935-3.097.109-.055.163.217-.109.652-.271.434-.978 1.848-1.358 2.554-.381.707-1.957 2.717-3.968 2.935-2.011.217-1.739-.272-1.739-.272s.381-.652-.163-.706Z" fill="#002A49"/><path d="M105.326 84.62c.092.153.165.317.218.489a3.639 3.639 0 0 0 2.173-.055 5.43 5.43 0 0 0 2.935-2.282c.707-1.196.707-1.576.544-1.468-.163.109-1.576 1.74-2.5 2.283a6.742 6.742 0 0 1-3.098.978l-.272.055Z" fill="#fff"/><path d="M112.011 78.696c-.109.108 1.739-.326 1.793 1.14.327-.434-.054-2.553-1.793-1.14ZM107.935 79.837s-.054 1.413-1.25 1.793c-1.195.38-1.141.435-1.576.816a8.788 8.788 0 0 1-1.685 1.032c.218-.054.272.055.272.055.329.126.685.163 1.033.108.489-.054.706-.543 1.358-1.087.653-.543 2.229-1.087 1.848-2.717Z" fill="#885541"/><path d="M92.174 70.978c.43.583.964 1.08 1.576 1.468.755.48 1.61.777 2.5.87.87.108 1.087.217 1.142.488.054.272.163.38-.38.326a4.13 4.13 0 0 0-1.577.11c-.76.108-2.174.108-3.26-3.262ZM100.707 71.848c-.163.163-.218.217 0 .598.217.38.543.326.978.163.801-.362 1.64-.635 2.5-.816a13.85 13.85 0 0 0 3.37-1.25c.924-.543 1.576-1.032 1.032-1.14-.543-.11-.489-.273-1.848.27-.97.415-1.995.69-3.043.816-.761.054-2.283.87-2.989 1.359Z" fill="#002A49"/><path d="M104.293 74.62s1.685 1.032 3.153-.11c1.467-1.14 1.195-1.956 1.195-1.956s-3.913 1.685-4.348 2.066Z" fill="#fff"/><path d="M103.207 74.62s0-.49 1.521-.924c1.522-.435 2.446-.435 3.152-.761l.87-.49s-1.304 1.468-2.283 1.74c-.709.251-1.435.45-2.173.598a1.36 1.36 0 0 1-1.087-.163Z" fill="#002A49"/><path d="M97.555 76.467s.706.816 1.25.598c.543-.217.76-.87.652-.924-.64.073-1.275.182-1.902.326Z" fill="#fff"/><path d="M96.63 75.76s.055.707.436.87c.313.113.648.15.978.11a9.947 9.947 0 0 0 1.413-.599 5.925 5.925 0 0 1-1.413-.163c-.49-.108-1.359-.434-1.413-.217ZM118.044 65.978c.127-.195.202-.42.217-.652-.054-.109-1.087-3.804-.978-4.837.109-1.032.598-2.609 1.576-2.989a4.836 4.836 0 0 1 2.228-.163 68.966 68.966 0 0 1-1.522-7.283 22.373 22.373 0 0 0-2.337-8.206c-1.684-3.587-3.75-7.065-4.673-7.609-.924-.543-1.685-1.576-3.424-1.63-1.739-.055-4.62-.055-5.326.38-.707.435-5.164 1.468-6.305 2.283s-3.641 2.174-4.185 3.26c-.543 1.088-2.228 1.903-3.152 2.392-.924.489-2.174 2.446-2.608 3.696-.435 1.25-2.066 2.39-2.827 3.64-.76 1.25-1.576 3.914-1.521 4.294.054.38-1.033 1.142-1.196 2.935-.163 1.794-.217 3.098 1.902 4.674a74.177 74.177 0 0 1 5.924 5.544 2.61 2.61 0 0 1-.054-1.903 24.237 24.237 0 0 0 5.815-1.032c3.26-.924 7.663-2.718 8.098-3.044.435-.326 1.032-.598 1.196-.326.163.272 2.88 1.902 4.293 1.902 1.413 0 2.88-.489 3.533-.434.652.054 4.402 4.945 5.326 5.108Z" fill="#002A49"/><path d="M119.837 67.065s.707 1.74 1.794.978c1.087-.76 1.25-5.054 1.25-5.054s-3.098 3.152-3.044 4.076Z" fill="#885541"/><path d="M106.196 75.163c.69 0 1.25-.243 1.25-.543 0-.3-.56-.544-1.25-.544-.691 0-1.25.243-1.25.544 0 .3.559.543 1.25.543ZM99.303 77.093c.043-.175-.182-.381-.502-.46-.32-.08-.615-.002-.659.172-.043.175.182.381.502.46.32.08.616.002.659-.172Z" fill="#002A49"/><path d="M117.609 58.26s-1.467-.053-2.609 1.957c-1.141 2.011-6.087 11.903-6.358 12.066-.272.163-5.979 1.847-7.174 2.771a5.002 5.002 0 0 1-3.207.816c-.706 0-4.837.108-6.087.271.217-.87.652-3.587.652-3.587l-.706-1.684s-1.033 4.51-1.196 4.945c-.163.435.326.87.598 1.196a7.227 7.227 0 0 0 4.783 2.935c3.043.38 3.858-.11 3.804-1.305-.054-1.195-.218-1.413.272-1.522.489-.108.597-.108 1.739.435a8.149 8.149 0 0 0 6.848.87c3.532-.978 2.337-2.826 1.902-3.37-.435-.543-1.087-1.087-.815-1.684.271-.598 2.01-4.022 3.423-6.685 1.414-2.663 1.631-4.511 2.174-5.49.544-.978.924-2.01 1.957-1.956 1.033.054.652-1.141 0-.978ZM98.316 79.675a16.186 16.186 0 0 1-2.772-.38c-1.848-.544-3.316-2.337-2.88-2.392l5.651-.272c.87-.054.816.272 1.142 1.25.326.979-.109 1.74-1.141 1.794Zm12.282-2.826c.109.815-1.576 1.359-3.424 1.467a7.502 7.502 0 0 1-4.348-.87 4.783 4.783 0 0 1-1.63-1.304c-.109-.38.435-.489 1.63-1.087 1.196-.597 4.402-1.25 4.783-1.141.38.109 2.88 2.12 2.989 2.935Z" fill="#003668"/><path d="M118.261 61.413s-1.141-.978-.652-3.152c.489-2.174 2.228-2.609 3.424-2.065 1.195.543 2.391 2.282 1.956 5.815-.435 3.532-.652 5.108-2.228 5.271-1.576.164-1.304-1.793-1.522-2.934a10.422 10.422 0 0 0-.978-2.935Z" fill="#A86C54"/><path d="M119.837 64.24c.054.162.38-.87 1.033-.925.652-.054 1.141 0 1.032-1.25-.109-1.25-1.087-1.467-.869-2.608.217-1.142.163-.979-.272-1.305-.435-.326-1.685-.217-1.848.544-.163.76-.054 2.554.652 3.315.707.76.761.87.707.489-.055-.38-.87-1.576-.924-2.391-.055-.816.598-1.63.706-1.25.109.38.544 1.576 1.142 2.01.597.435.271 1.522 0 1.74-.272.217-1.413.489-1.359 1.63Z" fill="#885541"/></g><path d="M199.609 100c0 54.952-44.548 99.5-99.5 99.5S.609 154.952.609 100 45.157.5 100.109.5s99.5 44.548 99.5 99.5Z" stroke="#E0E0E0"/></g><defs><clipPath id="a"><path fill="#fff" d="M0 0h200v200H0z"/></clipPath></defs></svg>